<?xml version="1.0" encoding="UTF-8" standalone="no"?>
<!-- Created with Inkscape (http://www.inkscape.org/) -->

<svg
   xmlns:dc="http://purl.org/dc/elements/1.1/"
   xmlns:cc="http://creativecommons.org/ns#"
   xmlns:rdf="http://www.w3.org/1999/02/22-rdf-syntax-ns#"
   xmlns:svg="http://www.w3.org/2000/svg"
   xmlns="http://www.w3.org/2000/svg"
   version="1.1"
   width="318.89764"
   height="318.89764"
   id="svg3096">
  <defs
     id="defs3098" />
  <metadata
     id="metadata3101">
    <rdf:RDF>
      <cc:Work
         rdf:about="">
        <dc:format>image/svg+xml</dc:format>
        <dc:type
           rdf:resource="http://purl.org/dc/dcmitype/StillImage" />
        <dc:title></dc:title>
      </cc:Work>
    </rdf:RDF>
  </metadata>
  <g
     transform="translate(0,-733.46324)"
     id="layer1">
    <rect
       width="318.89764"
       height="318.89764"
       x="0"
       y="733.4632"
       id="rect3195"
       style="fill:#003380;fill-opacity:1;stroke:none" />
    <path
       d="m 53.149676,765.36264 0,148.8137 c 0,58.704 47.592604,106.29476 106.299174,106.29476 58.70655,0 106.29918,-47.59076 106.29918,-106.29476 V 765.35304 H 53.149676 z"
       id="path3506-1-5"
       style="fill:#002255;fill-rule:nonzero;stroke:#002255;stroke-miterlimit:4;display:inline" />
    <rect
       width="212.59831"
       height="127.55936"
       x="53.149612"
       y="765.35303"
       id="rect3529"
       style="fill:#003380;fill-rule:nonzero;stroke:#002255;stroke-miterlimit:4;display:inline" />
    <path
       d="m 53.149676,871.65238 0,8.5173 c 2.41845,0 4.345005,-1.8807 4.345005,-4.2387 0,-2.358 -1.926405,-4.2786 -4.345005,-4.2786 z m 42.519661,0 c -2.41854,0 -4.38483,1.9206 -4.38483,4.2786 0,2.358 1.96638,4.2387 4.38483,4.2387 2.41842,0 4.344963,-1.8807 4.344963,-4.2387 0,-2.358 -1.926363,-4.2786 -4.344963,-4.2786 z m 42.519613,0 c -2.41854,0 -4.3848,1.9206 -4.3848,4.2786 0,2.358 1.96635,4.2387 4.3848,4.2387 2.41845,0 4.34501,-1.8807 4.34501,-4.2387 0,-2.358 -1.92641,-4.2786 -4.34501,-4.2786 z m 42.51966,0 c -2.41857,0 -4.38483,1.9206 -4.38483,4.2786 0,2.358 1.96635,4.2387 4.38483,4.2387 2.41845,0 4.34496,-1.8807 4.34496,-4.2387 0,-2.358 -1.92636,-4.2786 -4.34496,-4.2786 z m 42.51964,0 c -2.41857,0 -4.38486,1.9206 -4.38486,4.2786 0,2.358 1.96638,4.2387 4.38486,4.2387 2.41844,0 4.34498,-1.8807 4.34498,-4.2387 0,-2.358 -1.92636,-4.2786 -4.34498,-4.2786 z m 42.51963,0 c -2.41857,0 -4.38483,1.9206 -4.38483,4.2786 0,2.358 1.96635,4.2387 4.38483,4.2387 l 0,-8.5173 z m -206.353089,7.9191 c -2.41857,0 -4.398165,1.9341 -4.398165,4.2918 0,2.3586 1.979565,4.2255 4.398165,4.2255 2.41854,0 4.38483,-1.8669 4.38483,-4.2255 0,-2.3577 -1.96623,-4.2918 -4.38483,-4.2918 z m 29.989636,0 c -2.41845,0 -4.34499,1.9341 -4.34499,4.2918 0,2.3586 1.92675,4.2255 4.34499,4.2255 2.41854,0 4.38483,-1.8669 4.38483,-4.2255 0,-2.3577 -1.96635,-4.2918 -4.38483,-4.2918 z m 12.529983,0 c -2.418543,0 -4.398123,1.9341 -4.398123,4.2918 0,2.3586 1.97952,4.2255 4.398123,4.2255 2.41854,0 4.38486,-1.8669 4.38486,-4.2255 0,-2.3577 -1.96626,-4.2918 -4.38486,-4.2918 z m 29.98963,0 c -2.41842,0 -4.34499,1.9341 -4.34499,4.2918 0,2.3586 1.92678,4.2255 4.34499,4.2255 2.41854,0 4.38483,-1.8669 4.38483,-4.2255 0,-2.3577 -1.96635,-4.2918 -4.38483,-4.2918 z m 12.53003,0 c -2.41857,0 -4.39814,1.9341 -4.39814,4.2918 0,2.3586 1.97954,4.2255 4.39814,4.2255 2.41854,0 4.38483,-1.8669 4.38483,-4.2255 0,-2.3577 -1.96626,-4.2918 -4.38483,-4.2918 z m 29.9896,0 c -2.41842,0 -4.34496,1.9341 -4.34496,4.2918 0,2.3586 1.92675,4.2255 4.34496,4.2255 2.41857,0 4.38486,-1.8669 4.38486,-4.2255 0,-2.3577 -1.96638,-4.2918 -4.38486,-4.2918 z m 12.53001,0 c -2.41854,0 -4.39815,1.9341 -4.39815,4.2918 0,2.3586 1.97955,4.2255 4.39815,4.2255 2.41854,0 4.38483,-1.8669 4.38483,-4.2255 0,-2.3577 -1.96623,-4.2918 -4.38483,-4.2918 z m 29.98963,0 c -2.41845,0 -4.34499,1.9341 -4.34499,4.2918 0,2.3586 1.92678,4.2255 4.34499,4.2255 2.41854,0 4.38483,-1.8669 4.38483,-4.2255 0,-2.3577 -1.96635,-4.2918 -4.38483,-4.2918 z m 12.53,0 c -2.41854,0 -4.39812,1.9341 -4.39812,4.2918 0,2.3586 1.97952,4.2255 4.39812,4.2255 2.41857,0 4.38486,-1.8669 4.38486,-4.2255 0,-2.3577 -1.96623,-4.2918 -4.38486,-4.2918 z m 29.98963,0 c -2.41842,0 -4.34496,1.9341 -4.34496,4.2918 0,2.3586 1.92678,4.2255 4.34496,4.2255 2.41857,0 4.38486,-1.8669 4.38486,-4.2255 0,-2.3577 -1.96635,-4.2918 -4.38486,-4.2918 z m -206.313264,2.3919 0,10.9491 0,21.25996 c 0,58.7049 47.592574,106.29866 106.299114,106.29866 58.70655,0 106.29909,-47.59376 106.29909,-106.29866 l 0,-21.25996 0,-10.9491 c -0.64818,3.8187 -1.7589,7.4622 -2.88336,10.9491 l -36.77947,0 c -1.11282,-3.4869 -2.20871,-7.1304 -2.8568,-10.9491 -0.64821,3.8187 -1.7589,7.4622 -2.88339,10.9491 l -36.77944,0 c -1.11285,-3.4869 -2.20872,-7.1304 -2.85681,-10.9491 -0.64818,3.8187 -1.7589,7.4622 -2.88336,10.9491 l -36.7795,0 c -1.11284,-3.4869 -2.20868,-7.1304 -2.8568,-10.9491 -0.64815,3.8187 -1.75887,7.4622 -2.88336,10.9491 l -36.779473,0 c -1.11282,-3.4869 -2.20866,-7.1304 -2.85678,-10.9491 -0.64818,3.8187 -1.7589,7.4622 -2.88336,10.9491 l -36.779491,0 c -1.11285,-3.4869 -2.20869,-7.1304 -2.85681,-10.9491 z"
       id="path3390-9-5"
       style="color:#000000;fill:#002255;stroke:none;display:inline;enable-background:accumulate" />
    <path
       d="m 159.44879,839.7627 c -2.41854,0 -4.38486,1.92032 -4.38486,4.27832 0,2.358 1.96638,4.2387 4.38486,4.2387 2.41842,0 4.34496,-1.8807 4.34496,-4.2387 0,-2.358 -1.92636,-4.27832 -4.34496,-4.27832 z m -6.28491,7.91912 c -2.41845,0 -4.34498,1.9338 -4.34498,4.2918 0,2.3583 1.92674,4.22546 4.34498,4.22546 2.41854,0 4.3848,-1.86716 4.3848,-4.22546 0,-2.358 -1.96635,-4.2918 -4.3848,-4.2918 z m 12.52998,0 c -2.41854,0 -4.39815,1.9338 -4.39815,4.2918 0,2.3583 1.97952,4.22546 4.39815,4.22546 2.41854,0 4.38485,-1.86716 4.38485,-4.22546 0,-2.358 -1.96625,-4.2918 -4.38485,-4.2918 z m -6.24507,2.3919 c -1.04499,6.15626 -3.28182,11.85536 -4.86318,17.18036 -1.25502,4.2261 -2.62419,5.9127 -4.17225,9.6867 2.36253,-1.0107 4.74498,-1.3095 6.40452,-5.6073 0.03,3.5622 1.73523,9.2277 2.63091,10.9488 0.89556,-1.7211 2.6013,-7.3866 2.63088,-10.9488 1.65975,4.2978 4.04205,4.5966 6.40455,5.6073 -1.54791,-3.7743 -2.9571,-5.4609 -4.21212,-9.6867 -1.58163,-5.325 -3.7785,-11.0241 -4.82331,-17.18036 z"
       id="path3390"
       style="color:#000000;fill:#002255;stroke:none;display:inline;enable-background:accumulate" />
    <path
       d="m 116.9291,839.7627 c -2.41854,0 -4.38485,1.92032 -4.38485,4.27832 0,2.358 1.96637,4.2387 4.38485,4.2387 2.41841,0 4.34498,-1.8807 4.34498,-4.2387 0,-2.358 -1.92639,-4.27832 -4.34498,-4.27832 z m -6.28493,7.91912 c -2.41845,0 -4.34499,1.9338 -4.34499,4.2918 0,2.3583 1.92678,4.22546 4.34499,4.22546 2.41856,0 4.38482,-1.86716 4.38482,-4.22546 0,-2.358 -1.96632,-4.2918 -4.38482,-4.2918 z m 12.52999,0 c -2.41854,0 -4.39812,1.9338 -4.39812,4.2918 0,2.3583 1.97952,4.22546 4.39812,4.22546 2.41857,0 4.38483,-1.86716 4.38483,-4.22546 0,-2.358 -1.96623,-4.2918 -4.38483,-4.2918 z m -6.24506,2.3919 c -1.04496,6.15626 -3.28182,11.85536 -4.8632,17.18036 -1.25502,4.2261 -2.62419,5.9127 -4.17222,9.6867 2.36253,-1.0101 4.74498,-1.3095 6.40451,-5.6073 0.03,3.5622 1.73523,9.2277 2.63091,10.9488 0.89555,-1.7211 2.60129,-7.3866 2.6309,-10.9488 1.65975,4.2978 4.04205,4.5966 6.40452,5.6073 -1.54791,-3.7743 -2.9571,-5.4609 -4.21212,-9.6867 -1.58163,-5.325 -3.77847,-11.0241 -4.8233,-17.18036 z"
       id="path3390-1"
       style="color:#000000;fill:#002255;stroke:none;display:inline;enable-background:accumulate" />
    <path
       d="m 74.409461,839.7627 c -2.41854,0 -4.38486,1.92032 -4.38486,4.27832 0,2.358 1.96638,4.2387 4.38486,4.2387 2.41842,0 4.34496,-1.8807 4.34496,-4.2387 0,-2.358 -1.92636,-4.27832 -4.34496,-4.27832 z m -6.28494,7.91912 c -2.41842,0 -4.34496,1.9338 -4.34496,4.2918 0,2.3583 1.92675,4.22546 4.34496,4.22546 2.41857,0 4.38483,-1.86716 4.38483,-4.22546 0,-2.358 -1.96635,-4.2918 -4.38483,-4.2918 z m 12.53001,0 c -2.41857,0 -4.39815,1.9338 -4.39815,4.2918 0,2.3583 1.97952,4.22546 4.39815,4.22546 2.418541,0 4.384846,-1.86716 4.384846,-4.22546 0,-2.358 -1.966245,-4.2918 -4.384846,-4.2918 z m -6.24507,2.3919 c -1.04496,6.15626 -3.28182,11.85536 -4.86318,17.18036 -1.25502,4.2261 -2.62419,5.9127 -4.17225,9.6867 2.36253,-1.0101 4.74498,-1.3095 6.40452,-5.6073 0.03,3.5622 1.73523,9.2277 2.63091,10.9488 0.89556,-1.7211 2.6013,-7.3866 2.63088,-10.9488 1.65975,4.2978 4.04205,4.5966 6.404521,5.6073 -1.54791,-3.7743 -2.957071,-5.4609 -4.212091,-9.6867 -1.58166,-5.325 -3.77847,-11.0241 -4.82331,-17.18036 z"
       id="path3390-7"
       style="color:#000000;fill:#002255;stroke:none;display:inline;enable-background:accumulate" />
    <path
       d="m 201.96836,839.7627 c -2.41857,0 -4.38483,1.92032 -4.38483,4.27832 0,2.358 1.96638,4.2387 4.38483,4.2387 2.41845,0 4.34496,-1.8807 4.34496,-4.2387 0,-2.358 -1.92636,-4.27832 -4.34496,-4.27832 z m -6.28495,7.91912 c -2.41842,0 -4.34496,1.9338 -4.34496,4.2918 0,2.3583 1.92675,4.22546 4.34496,4.22546 2.41858,0 4.38487,-1.86716 4.38487,-4.22546 0,-2.358 -1.96638,-4.2918 -4.38487,-4.2918 z m 12.53002,0 c -2.41854,0 -4.39812,1.9338 -4.39812,4.2918 0,2.3583 1.97952,4.22546 4.39812,4.22546 2.41857,0 4.38483,-1.86716 4.38483,-4.22546 0,-2.358 -1.96623,-4.2918 -4.38483,-4.2918 z m -6.24507,2.3919 c -1.04496,6.15626 -3.28182,11.85536 -4.86318,17.18036 -1.255,4.2261 -2.6242,5.9127 -4.17226,9.6867 2.36253,-1.0101 4.74502,-1.3095 6.40453,-5.6073 0.03,3.5622 1.73523,9.2277 2.63091,10.9488 0.89556,-1.7211 2.60133,-7.3866 2.63091,-10.9488 1.65975,4.2978 4.04202,4.5966 6.40452,5.6073 -1.54794,-3.7743 -2.9571,-5.4609 -4.21212,-9.6867 -1.58163,-5.325 -3.77847,-11.0241 -4.82331,-17.18036 z"
       id="path3390-4"
       style="color:#000000;fill:#002255;stroke:none;display:inline;enable-background:accumulate" />
    <path
       d="m 244.48801,839.7627 c -2.41857,0 -4.38486,1.92032 -4.38486,4.27832 0,2.358 1.96638,4.2387 4.38486,4.2387 2.41839,0 4.34493,-1.8807 4.34493,-4.2387 0,-2.358 -1.92636,-4.27832 -4.34493,-4.27832 z m -6.28494,7.91912 c -2.41845,0 -4.34496,1.9338 -4.34496,4.2918 0,2.3583 1.92675,4.22546 4.34496,4.22546 2.41857,0 4.38483,-1.86716 4.38483,-4.22546 0,-2.358 -1.96635,-4.2918 -4.38483,-4.2918 z m 12.53001,0 c -2.41857,0 -4.39812,1.9338 -4.39812,4.2918 0,2.3583 1.97949,4.22546 4.39812,4.22546 2.41855,0 4.38484,-1.86716 4.38484,-4.22546 0,-2.358 -1.96623,-4.2918 -4.38484,-4.2918 z m -6.24507,2.3919 c -1.04499,6.15626 -3.28182,11.85536 -4.86318,17.18036 -1.25502,4.2261 -2.62422,5.9127 -4.17225,9.6867 2.36253,-1.0101 4.74498,-1.3095 6.40449,-5.6073 0.03,3.5622 1.73526,9.2277 2.63094,10.9488 0.89553,-1.7211 2.60127,-7.3866 2.63088,-10.9488 1.65972,4.2978 4.04205,4.5966 6.40456,5.6073 -1.54795,-3.7743 -2.95714,-5.4609 -4.21216,-9.6867 -1.58163,-5.325 -3.77847,-11.0241 -4.82328,-17.18036 z"
       id="path3390-0"
       style="color:#000000;fill:#002255;stroke:none;display:inline;enable-background:accumulate" />
    <path
       d="m 138.18895,807.87268 c -2.41854,0 -4.3848,1.9206 -4.3848,4.2786 0,2.358 1.96635,4.23872 4.3848,4.23872 2.41845,0 4.34501,-1.88072 4.34501,-4.23872 0,-2.358 -1.92641,-4.2786 -4.34501,-4.2786 z m -6.28491,7.9194 c -2.41842,0 -4.34499,1.93382 -4.34499,4.29182 0,2.358 1.92678,4.2255 4.34499,4.2255 2.41854,0 4.38483,-1.8675 4.38483,-4.2255 0,-2.358 -1.96635,-4.29182 -4.38483,-4.29182 z m 12.53003,0 c -2.41857,0 -4.39814,1.93382 -4.39814,4.29182 0,2.358 1.97954,4.2255 4.39814,4.2255 2.41854,0 4.38483,-1.8675 4.38483,-4.2255 0,-2.358 -1.96626,-4.29182 -4.38483,-4.29182 z m -6.24512,2.39162 c -1.04496,6.1566 -3.28182,11.8557 -4.86315,17.1807 -1.25502,4.2261 -2.62419,5.91272 -4.17225,9.68642 2.36253,-1.0101 4.74498,-1.3095 6.40449,-5.60732 0.03,3.56222 1.73526,9.22772 2.63091,10.94912 0.89556,-1.7211 2.60135,-7.3869 2.63096,-10.94912 1.65972,4.29812 4.04202,4.59722 6.40452,5.60732 -1.54794,-3.774 -2.95713,-5.46092 -4.21215,-9.68642 -1.58163,-5.325 -3.77849,-11.0241 -4.82333,-17.1807 z"
       id="path3390-9"
       style="color:#000000;fill:#002255;stroke:none;display:inline;enable-background:accumulate" />
    <path
       d="m 95.669277,807.87268 c -2.41857,0 -4.38483,1.9206 -4.38483,4.2786 0,2.358 1.96635,4.23872 4.38483,4.23872 2.41842,0 4.344993,-1.88072 4.344993,-4.23872 0,-2.358 -1.926393,-4.2786 -4.344993,-4.2786 z m -6.28494,7.9194 c -2.41842,0 -4.34496,1.93382 -4.34496,4.29182 0,2.3583 1.92675,4.2255 4.34496,4.2255 2.41857,0 4.38483,-1.8672 4.38483,-4.2255 0,-2.358 -1.96635,-4.29182 -4.38483,-4.29182 z m 12.530013,0 c -2.418543,0 -4.398123,1.93382 -4.398123,4.29182 0,2.3583 1.97952,4.2255 4.398123,4.2255 2.41857,0 4.38483,-1.8672 4.38483,-4.2255 0,-2.358 -1.96623,-4.29182 -4.38483,-4.29182 z m -6.245073,2.39162 c -1.04496,6.1566 -3.28182,11.8557 -4.86318,17.1807 -1.25502,4.2261 -2.62416,5.91272 -4.17225,9.68672 2.36253,-1.0104 4.74498,-1.3098 6.40455,-5.60732 0.03,3.56192 1.7352,9.22772 2.63088,10.94882 0.89553,-1.7211 2.6013,-7.3869 2.63091,-10.94882 1.65975,4.29782 4.042053,4.59692 6.404523,5.60732 -1.54794,-3.7743 -2.9571,-5.46122 -4.21209,-9.68672 -1.581663,-5.325 -3.778533,-11.0241 -4.823343,-17.1807 z"
       id="path3390-1-4"
       style="color:#000000;fill:#002255;stroke:none;display:inline;enable-background:accumulate" />
    <path
       d="m 53.149646,807.87268 0,8.51732 c 2.41842,0 4.344975,-1.88072 4.344975,-4.23872 0,-2.358 -1.926375,-4.2786 -4.344975,-4.2786 z m 6.245055,7.9194 c -2.41854,0 -4.398105,1.93382 -4.398105,4.29182 0,2.3583 1.979505,4.2255 4.398105,4.2255 2.41857,0 4.38486,-1.8672 4.38486,-4.2255 0,-2.358 -1.96626,-4.29182 -4.38486,-4.29182 z m -6.245055,2.39162 0,32.20892 c 0.89553,-1.7211 2.60127,-7.3869 2.63091,-10.94882 1.659735,4.29782 4.042035,4.59692 6.404505,5.60732 -1.54791,-3.7743 -2.9571,-5.46122 -4.21212,-9.68672 -1.581615,-5.325 -3.778485,-11.0241 -4.823295,-17.1807 z"
       id="path3390-7-8"
       style="color:#000000;fill:#002255;stroke:none;display:inline;enable-background:accumulate" />
    <path
       d="m 180.70855,807.87268 c -2.41857,0 -4.38483,1.9206 -4.38483,4.2786 0,2.358 1.96635,4.23872 4.38483,4.23872 2.41842,0 4.34496,-1.88072 4.34496,-4.23872 0,-2.358 -1.92636,-4.2786 -4.34496,-4.2786 z m -6.28494,7.9194 c -2.41842,0 -4.34496,1.93382 -4.34496,4.29182 0,2.3583 1.92675,4.2255 4.34496,4.2255 2.41857,0 4.38483,-1.8672 4.38483,-4.2255 0,-2.358 -1.96635,-4.29182 -4.38483,-4.29182 z m 12.52998,0 c -2.41854,0 -4.39809,1.93382 -4.39809,4.29182 0,2.3583 1.97952,4.2255 4.39809,4.2255 2.4186,0 4.38486,-1.8672 4.38486,-4.2255 0,-2.358 -1.96626,-4.29182 -4.38486,-4.29182 z m -6.24504,2.39162 c -1.04496,6.1566 -3.28182,11.8557 -4.86318,17.1807 -1.25502,4.2261 -2.62419,5.91272 -4.17225,9.68672 2.36253,-1.0104 4.74501,-1.3098 6.40452,-5.60732 0.03,3.56192 1.73523,9.22772 2.63091,10.94882 0.89553,-1.7211 2.6013,-7.3869 2.63091,-10.94882 1.65972,4.29782 4.04202,4.59692 6.40449,5.60732 -1.54791,-3.7743 -2.95707,-5.46122 -4.21209,-9.68672 -1.58163,-5.325 -3.77847,-11.0241 -4.82331,-17.1807 z"
       id="path3390-4-8"
       style="color:#000000;fill:#002255;stroke:none;display:inline;enable-background:accumulate" />
    <path
       d="m 223.22816,807.87268 c -2.41854,0 -4.38483,1.9206 -4.38483,4.2786 0,2.358 1.96635,4.23872 4.38483,4.23872 2.41847,0 4.34501,-1.88072 4.34501,-4.23872 0,-2.358 -1.92639,-4.2786 -4.34501,-4.2786 z m -6.28494,7.9194 c -2.41839,0 -4.34496,1.93382 -4.34496,4.29182 0,2.3583 1.92678,4.2255 4.34496,4.2255 2.41857,0 4.38486,-1.8672 4.38486,-4.2255 0,-2.358 -1.96638,-4.29182 -4.38486,-4.29182 z m 12.53003,0 c -2.41854,0 -4.39812,1.93382 -4.39812,4.29182 0,2.3583 1.97955,4.2255 4.39812,4.2255 2.41857,0 4.38486,-1.8672 4.38486,-4.2255 0,-2.358 -1.96623,-4.29182 -4.38486,-4.29182 z m -6.24509,2.39162 c -1.04496,6.1566 -3.28182,11.8557 -4.86315,17.1807 -1.25502,4.2261 -2.62419,5.91272 -4.17225,9.68672 2.36253,-1.0104 4.74498,-1.3098 6.40452,-5.60732 0.03,3.56192 1.7352,9.22772 2.63088,10.94882 0.89556,-1.7211 2.60132,-7.3869 2.63093,-10.94882 1.65975,4.29782 4.04205,4.59692 6.40452,5.60732 -1.54794,-3.7743 -2.9571,-5.46122 -4.21209,-9.68672 -1.58166,-5.325 -3.77852,-11.0241 -4.82336,-17.1807 z"
       id="path3390-0-2"
       style="color:#000000;fill:#002255;stroke:none;display:inline;enable-background:accumulate" />
    <path
       d="m 265.74779,807.87268 c -2.41854,0 -4.3848,1.9206 -4.3848,4.2786 0,2.358 1.96635,4.23872 4.3848,4.23872 l 0,-8.51732 z m -6.28491,7.9194 c -2.41842,0 -4.34496,1.93382 -4.34496,4.29182 0,2.3583 1.92675,4.2255 4.34496,4.2255 2.41857,0 4.38483,-1.8672 4.38483,-4.2255 0,-2.358 -1.96635,-4.29182 -4.38483,-4.29182 z m 6.28491,2.39162 c -1.04493,6.1566 -3.28182,11.8557 -4.86315,17.1807 -1.25499,4.2261 -2.62419,5.91272 -4.17225,9.68672 2.36253,-1.0104 4.74501,-1.3098 6.40452,-5.60732 0.03,3.56192 1.73523,9.22772 2.63088,10.94882 l 0,-32.20892 z"
       id="path3390-7-8-4"
       style="color:#000000;fill:#002255;stroke:none;display:inline;enable-background:accumulate" />
    <path
       d="m 159.44879,775.98297 c -2.41854,0 -4.38486,1.9203 -4.38486,4.2786 0,2.358 1.96638,4.2387 4.38486,4.2387 2.41842,0 4.34496,-1.8807 4.34496,-4.2387 0,-2.3583 -1.92636,-4.2786 -4.34496,-4.2786 z m -6.28491,7.9191 c -2.41845,0 -4.34498,1.9338 -4.34498,4.2921 0,2.358 1.92674,4.22521 4.34498,4.22521 2.41854,0 4.3848,-1.86721 4.3848,-4.22521 0,-2.3583 -1.96635,-4.2921 -4.3848,-4.2921 z m 12.52998,0 c -2.41854,0 -4.39815,1.9338 -4.39815,4.2921 0,2.358 1.97952,4.22521 4.39815,4.22521 2.41854,0 4.38485,-1.86721 4.38485,-4.22521 0,-2.3583 -1.96625,-4.2921 -4.38485,-4.2921 z m -6.24507,2.3919 c -1.04499,6.15661 -3.28182,11.85541 -4.86318,17.18071 -1.25502,4.2258 -2.62419,5.9124 -4.17225,9.6864 2.36253,-1.0104 4.74498,-1.3095 6.40452,-5.6073 0.03,3.5622 1.73523,9.22772 2.63091,10.94882 0.89556,-1.7208 2.6013,-7.38662 2.63088,-10.94882 1.65975,4.2978 4.04205,4.5969 6.40455,5.6073 -1.54791,-3.7743 -2.9571,-5.4609 -4.21212,-9.6864 -1.58163,-5.3253 -3.7785,-11.0241 -4.82331,-17.18071 z"
       id="path3390-5"
       style="color:#000000;fill:#002255;stroke:none;display:inline;enable-background:accumulate" />
    <path
       d="m 116.9291,775.98297 c -2.41854,0 -4.38485,1.9203 -4.38485,4.2786 0,2.358 1.96637,4.2387 4.38485,4.2387 2.41841,0 4.34498,-1.8807 4.34498,-4.2387 0,-2.3583 -1.92639,-4.2786 -4.34498,-4.2786 z m -6.28493,7.9191 c -2.41845,0 -4.34499,1.9341 -4.34499,4.2921 0,2.358 1.92678,4.22521 4.34499,4.22521 2.41856,0 4.38482,-1.86721 4.38482,-4.22521 0,-2.358 -1.96632,-4.2921 -4.38482,-4.2921 z m 12.52999,0 c -2.41854,0 -4.39812,1.9341 -4.39812,4.2921 0,2.358 1.97952,4.22521 4.39812,4.22521 2.41857,0 4.38483,-1.86721 4.38483,-4.22521 0,-2.358 -1.96623,-4.2921 -4.38483,-4.2921 z m -6.24506,2.3919 c -1.04496,6.15661 -3.28182,11.85541 -4.8632,17.18071 -1.25502,4.2258 -2.62419,5.9127 -4.17222,9.6864 2.36253,-1.0104 4.74498,-1.3095 6.40451,-5.6073 0.03,3.5622 1.73523,9.22772 2.63091,10.94912 0.89555,-1.7211 2.60129,-7.38692 2.6309,-10.94912 1.65975,4.2978 4.04205,4.5969 6.40452,5.6073 -1.54791,-3.7743 -2.9571,-5.4609 -4.21212,-9.6864 -1.58163,-5.3253 -3.77847,-11.0241 -4.8233,-17.18071 z"
       id="path3390-1-1"
       style="color:#000000;fill:#002255;stroke:none;display:inline;enable-background:accumulate" />
    <path
       d="m 74.409461,775.98297 c -2.41854,0 -4.38486,1.9203 -4.38486,4.2786 0,2.358 1.96638,4.2387 4.38486,4.2387 2.41842,0 4.34496,-1.8807 4.34496,-4.2387 0,-2.3583 -1.92636,-4.2786 -4.34496,-4.2786 z m -6.28494,7.9191 c -2.41842,0 -4.34496,1.9341 -4.34496,4.2921 0,2.358 1.92675,4.22521 4.34496,4.22521 2.41857,0 4.38483,-1.86721 4.38483,-4.22521 0,-2.358 -1.96635,-4.2921 -4.38483,-4.2921 z m 12.53001,0 c -2.41857,0 -4.39815,1.9341 -4.39815,4.2921 0,2.358 1.97952,4.22521 4.39815,4.22521 2.418541,0 4.384846,-1.86721 4.384846,-4.22521 0,-2.358 -1.966245,-4.2921 -4.384846,-4.2921 z m -6.24507,2.3919 c -1.04496,6.15661 -3.28182,11.85541 -4.86318,17.18071 -1.25502,4.2258 -2.62419,5.9127 -4.17225,9.6864 2.36253,-1.0104 4.74498,-1.3095 6.40452,-5.6073 0.03,3.5622 1.73523,9.22772 2.63091,10.94912 0.89556,-1.7211 2.6013,-7.38692 2.63088,-10.94912 1.65975,4.2978 4.04205,4.5969 6.404521,5.6073 -1.54791,-3.7743 -2.957071,-5.4609 -4.212091,-9.6864 -1.58166,-5.3253 -3.77847,-11.0241 -4.82331,-17.18071 z"
       id="path3390-7-7"
       style="color:#000000;fill:#002255;stroke:none;display:inline;enable-background:accumulate" />
    <path
       d="m 201.96836,775.98297 c -2.41857,0 -4.38483,1.9203 -4.38483,4.2786 0,2.358 1.96638,4.2387 4.38483,4.2387 2.41845,0 4.34496,-1.8807 4.34496,-4.2387 0,-2.3583 -1.92636,-4.2786 -4.34496,-4.2786 z m -6.28495,7.9191 c -2.41842,0 -4.34496,1.9341 -4.34496,4.2921 0,2.358 1.92675,4.22521 4.34496,4.22521 2.41858,0 4.38487,-1.86721 4.38487,-4.22521 0,-2.358 -1.96638,-4.2921 -4.38487,-4.2921 z m 12.53002,0 c -2.41854,0 -4.39812,1.9341 -4.39812,4.2921 0,2.358 1.97952,4.22521 4.39812,4.22521 2.41857,0 4.38483,-1.86721 4.38483,-4.22521 0,-2.358 -1.96623,-4.2921 -4.38483,-4.2921 z m -6.24507,2.3919 c -1.04496,6.15661 -3.28182,11.85541 -4.86318,17.18071 -1.255,4.2258 -2.6242,5.9127 -4.17226,9.6864 2.36253,-1.0104 4.74502,-1.3095 6.40453,-5.6073 0.03,3.5622 1.73523,9.22772 2.63091,10.94912 0.89556,-1.7211 2.60133,-7.38692 2.63091,-10.94912 1.65975,4.2978 4.04202,4.5969 6.40452,5.6073 -1.54794,-3.7743 -2.9571,-5.4609 -4.21212,-9.6864 -1.58163,-5.3253 -3.77847,-11.0241 -4.82331,-17.18071 z"
       id="path3390-4-1"
       style="color:#000000;fill:#002255;stroke:none;display:inline;enable-background:accumulate" />
    <path
       d="m 244.48801,775.98297 c -2.41857,0 -4.38486,1.9203 -4.38486,4.2786 0,2.358 1.96638,4.2387 4.38486,4.2387 2.41839,0 4.34493,-1.8807 4.34493,-4.2387 0,-2.3583 -1.92636,-4.2786 -4.34493,-4.2786 z m -6.28494,7.9191 c -2.41845,0 -4.34496,1.9341 -4.34496,4.2921 0,2.358 1.92675,4.22521 4.34496,4.22521 2.41857,0 4.38483,-1.86721 4.38483,-4.22521 0,-2.358 -1.96635,-4.2921 -4.38483,-4.2921 z m 12.53001,0 c -2.41857,0 -4.39812,1.9341 -4.39812,4.2921 0,2.358 1.97949,4.22521 4.39812,4.22521 2.41855,0 4.38484,-1.86721 4.38484,-4.22521 0,-2.358 -1.96623,-4.2921 -4.38484,-4.2921 z m -6.24507,2.3919 c -1.04499,6.15661 -3.28182,11.85541 -4.86318,17.18071 -1.25502,4.2258 -2.62422,5.9127 -4.17225,9.6864 2.36253,-1.0104 4.74498,-1.3095 6.40449,-5.6073 0.03,3.5622 1.73526,9.22772 2.63094,10.94912 0.89553,-1.7211 2.60127,-7.38692 2.63088,-10.94912 1.65972,4.2978 4.04205,4.5969 6.40456,5.6073 -1.54795,-3.7743 -2.95714,-5.4609 -4.21216,-9.6864 -1.58163,-5.3253 -3.77847,-11.0241 -4.82328,-17.18071 z"
       id="path3390-0-1"
       style="color:#000000;fill:#002255;stroke:none;display:inline;enable-background:accumulate" />
    <path
       d="m 135.30556,765.35304 c -0.68835,2.1342 -1.37937,4.20992 -1.97985,6.23162 -1.25499,4.22611 -2.62416,5.91271 -4.17222,9.68671 2.36253,-1.0104 4.74498,-1.3098 6.40452,-5.6073 0.03,3.5619 1.73523,9.2277 2.63091,10.9488 0.89553,-1.7208 2.60132,-7.3866 2.6309,-10.9488 1.65975,4.2978 4.04205,4.5969 6.40452,5.6073 -1.54794,-3.7743 -2.9571,-5.4609 -4.21209,-9.68671 -0.60057,-2.0217 -1.28532,-4.09742 -1.96653,-6.23162 l -5.74016,0 z"
       id="path3390-9-2"
       style="color:#000000;fill:#002255;stroke:none;display:inline;enable-background:accumulate" />
    <path
       d="m 92.785917,765.35304 c -0.68832,2.1342 -1.37937,4.20992 -1.97982,6.23162 -1.25502,4.22611 -2.62416,5.91271 -4.17225,9.68671 2.36253,-1.0104 4.74498,-1.3098 6.40455,-5.6073 0.03,3.5619 1.7352,9.2277 2.63088,10.9488 0.89553,-1.7208 2.6013,-7.3866 2.63091,-10.9488 1.65975,4.2978 4.042053,4.5969 6.404523,5.6073 -1.54794,-3.7743 -2.9571,-5.4609 -4.21209,-9.68671 -0.600573,-2.0217 -1.285353,-4.09742 -1.966533,-6.23162 l -5.74017,0 z"
       id="path3390-1-4-3"
       style="color:#000000;fill:#002255;stroke:none;display:inline;enable-background:accumulate" />
    <path
       d="m 53.149646,765.35304 0,21.25983 c 0.89553,-1.7208 2.60127,-7.3866 2.63091,-10.9488 1.659735,4.2978 4.042035,4.5969 6.404505,5.6073 -1.54791,-3.7743 -2.9571,-5.4609 -4.21212,-9.68671 -0.60054,-2.0217 -1.285305,-4.09742 -1.966545,-6.23162 l -2.85675,0 z"
       id="path3390-7-8-2"
       style="color:#000000;fill:#002255;stroke:none;display:inline;enable-background:accumulate" />
    <path
       d="m 177.82519,765.35304 c -0.68835,2.1342 -1.37937,4.20992 -1.97982,6.23162 -1.25502,4.22611 -2.62419,5.91271 -4.17225,9.68671 2.36253,-1.0104 4.74501,-1.3098 6.40452,-5.6073 0.03,3.5619 1.73523,9.2277 2.63091,10.9488 0.89553,-1.7208 2.6013,-7.3866 2.63091,-10.9488 1.65972,4.2978 4.04202,4.5969 6.40449,5.6073 -1.54791,-3.7743 -2.95707,-5.4609 -4.21209,-9.68671 -0.60057,-2.0217 -1.28535,-4.09742 -1.96653,-6.23162 l -5.74014,0 z"
       id="path3390-4-8-2"
       style="color:#000000;fill:#002255;stroke:none;display:inline;enable-background:accumulate" />
    <path
       d="m 220.3448,765.35304 c -0.68832,2.1342 -1.37937,4.20992 -1.97979,6.23162 -1.25502,4.22611 -2.62419,5.91271 -4.17225,9.68671 2.36253,-1.0104 4.74498,-1.3098 6.40452,-5.6073 0.03,3.5619 1.7352,9.2277 2.63088,10.9488 0.89556,-1.7208 2.60132,-7.3866 2.63093,-10.9488 1.65975,4.2978 4.04205,4.5969 6.40452,5.6073 -1.54794,-3.7743 -2.9571,-5.4609 -4.21209,-9.68671 -0.60057,-2.0217 -1.28532,-4.09742 -1.96653,-6.23162 l -5.74019,0 z"
       id="path3390-0-2-16"
       style="color:#000000;fill:#002255;stroke:none;display:inline;enable-background:accumulate" />
    <path
       d="m 262.86446,765.35304 c -0.68832,2.1342 -1.37937,4.20992 -1.97982,6.23162 -1.25499,4.22611 -2.62419,5.91271 -4.17225,9.68671 2.36253,-1.0104 4.74501,-1.3098 6.40452,-5.6073 0.03,3.5619 1.73523,9.2277 2.63088,10.9488 l 0,-21.25983 -2.88333,0 z"
       id="path3390-7-8-4-8"
       style="color:#000000;fill:#002255;stroke:none;display:inline;enable-background:accumulate" />
    <path
       d="m 151.13489,1001.8249 a 8.3157466,8.3169598 0 0 1 -8.31608,8.3169 9.6022359,9.6036366 0 0 0 16.63181,0 9.6022359,9.6036366 0 0 0 16.63184,0 8.3157466,8.3169598 0 0 1 -8.31611,-8.3169 v -36.80906 h 36.81726 a 8.3157466,8.3169598 0 0 1 8.31573,8.3169 9.6022359,9.6036366 0 0 0 0,-16.6338 9.6022359,9.6036366 0 0 0 0,-16.6344 8.3157466,8.3169598 0 0 1 -8.31573,8.3169 h -36.82392 v -36.82231 a 8.3157466,8.3169598 0 0 1 8.31611,-8.3172 9.6022359,9.6036366 0 0 0 -16.63184,0 9.6022359,9.6036366 0 0 0 -16.63181,0 8.3157466,8.3169598 0 0 1 8.31605,8.3172 v 36.82231 h -36.81387 a 8.3157466,8.3169598 0 0 1 -8.31608,-8.3169 9.6022359,9.6036366 0 0 0 0,16.6344 9.6022359,9.6036366 0 0 0 0,16.6338 8.3157466,8.3169598 0 0 1 8.31608,-8.3169 h 36.8172 z"
       id="path6"
       style="fill:#003380;stroke:none;display:inline" />
    <path
       d="m 104.13426,845.09342 c 0,0 -3.66189,-0.039 -5.128503,-1.1817 -1.59468,-1.2438 -3.30213,-5.64062 -3.30213,-5.64062 0,0 -4.0374,0.873 -5.89392,0.3372 -1.9395,-0.5598 -4.71558,-3.5151 -4.71558,-3.5151 1.85418,-0.3645 3.23889,-0.7374 5.03436,-2.6721 0,0 -3.57402,-0.252 -5.609925,-1.2963 -1.77231,-0.9087 -4.664461,-3.921 -4.664461,-3.921 1.652551,-0.5463 3.439231,-0.4785 4.740871,-2.6304 0,0 -3.500551,0.042 -5.086531,-0.7299 -1.58319,-0.7704 -4.09707,-3.7371 -4.09707,-3.7371 1.92372,-0.222 3.75339,-0.6978 4.99041,-2.769 0,0 -3.54546,0.159 -5.0478,-0.6255 -2.07399,-1.08512 -5.24721,-4.70102 -5.24721,-4.70102 1.99533,-0.201 3.98001,-0.429 5.48922,-1.9374 l -1.12182,-3.0345 c -1.3542,-3.6633 -4.19055,-2.3709 -6.0753,-3.3807 -1.85118,-0.9915 -2.88903,-3.6951 -2.98998,-5.2107 -0.1782,-2.673 0.84771,-6.75631 5.37576,-5.9034 -2.25174,-4.57111 0.0927,-7.85521 2.48862,-9.16981 2.3016,-1.2636 4.33419,-0.9186 5.89719,4.0845 0,0 2.100781,-2.2632 3.238951,-2.5989 1.58427,-0.4668 3.370035,0.234 3.933135,2.2092 0.2316,0.8121 0.31596,2.5113 -0.0726,3.5253 -0.61425,1.6044 -1.967205,2.70331 -2.409165,5.04991 -0.50034,2.6568 1.342125,7.2921 1.342125,7.2921 0,0 8.70348,9.1857 12.70743,14.21642 2.130333,2.6769 5.999523,8.4702 5.999523,8.4702 l 0.2139,-0.165 h 8.62742 l 0.77028,19.39142 -9.38828,0.243 z"
       id="path13429-8-0-0-7-73-5-7-9-5-9-8"
       style="fill:#002255;stroke:#003380;stroke-miterlimit:4;display:inline" />
    <path
       d="m 85.365657,785.47587 c 0.30312,1.9161 -0.30444,3.2991 -1.607265,3.8271 -0.64755,0.261 -1.39629,0 -2.17731,-1.0818 0.37569,-3.1824 0.1878,-4.4322 -1.460941,-7.1562 4.122331,1.1712 4.278781,3.603 5.245606,4.4112 z"
       id="path4318-6-3-4-57-1-4-4-7-3-2-3-6"
       style="fill:#002255;stroke:#003380;stroke-miterlimit:4;display:inline" />
    <path
       d="m 73.870991,783.99327 c 0.87147,1.5765 0.74856,3.1707 -0.2733,4.3701 -0.50784,0.5961 -1.27062,0.7713 -2.3181,0.216 -0.64746,-3.1038 -1.2069,-4.1376 -3.55434,-5.7075 4.11645,-1.2087 5.01468,0.9186 6.1458,1.1208 z"
       id="path4318-6-3-4-0-0-82-0-78-8-4-7-1-5"
       style="fill:#002255;stroke:#003380;stroke-miterlimit:4;display:inline" />
    <path
       d="m 67.344761,794.83768 c 1.28562,0.9492 1.67277,2.4663 1.11942,4.1241 -0.2751,0.8238 -0.91356,1.4067 -2.03922,1.4844 -1.56,-2.4618 -2.39202,-3.0906 -5.01732,-3.2136 3.36312,-3.3849 4.84545,-1.9503 5.93685,-2.3946 z"
       id="path4318-6-3-4-6-0-6-6-8-7-4-6-9-0"
       style="fill:#002255;stroke:#003380;stroke-miterlimit:4;display:inline" />
    <path
       d="m 153.8417,853.99712 c -1.52058,-0.5913 -3.37689,-3.2547 -4.98977,-3.2424 -1.6986,0 -2.8962,1.2759 -3.75075,2.9733 -0.40779,0.81 0.2322,3.83996 0.86775,4.42196 l 2.92596,2.6796 c 0,0 -1.83156,2.8029 -1.9704,4.3809 -0.1206,1.371 0.39633,2.4717 1.13397,3.5541 0.96189,1.4112 1.19787,1.9569 2.73047,2.2539 0.91518,0.177 3.08094,-0.3558 3.08094,-0.3558 0,0 -0.0507,2.2491 0.48444,3.2868 0.96948,1.881 2.61558,3.5394 4.49619,3.2745 1.46853,-0.207 1.94505,-0.5025 2.72118,-1.9587 0.61542,-1.1547 0.49239,-4.1058 1.49169,-5.322 l 4.06395,-4.9452 c 1.75463,1.4148 1.70807,3.5232 1.48988,5.6985 0,0 2.60844,-2.1951 3.38445,-3.7683 0.8085,-1.6386 1.12815,-5.5071 1.12815,-5.5071 1.65153,1.9845 2.19801,3.7581 1.84404,6.129 0,0 2.65539,-2.2089 3.50973,-3.7683 0.96186,-1.7553 1.79118,-5.5494 1.79118,-5.5494 1.20912,1.5672 1.4643,3.7959 1.00284,6.5217 0,0 2.96736,-2.6484 3.76059,-4.7826 0.62709,-1.6872 1.00281,-4.6377 1.00281,-4.6377 3.60576,0.3489 5.93421,-1.74146 6.09294,-3.90566 0.123,-1.6782 -1.30326,-3.9666 -4.2066,-4.6308 0,0 -1.07172,-2.1318 -1.47741,-3.7086 -0.2787,-1.0839 -0.2997,-2.3157 0,-3.39212 0.59928,-2.1534 1.99596,-3.9651 3.42282,-5.5125 1.96278,-2.1285 6.23463,-4.8057 6.23463,-4.8057 l -1.24992,-8.3373 -14.54751,-2.9679 -16.08041,5.28 c 2.93082,1.7913 9.49547,7.9164 8.95928,10.2381 -0.2007,0.8685 -1.59702,1.6914 -2.2647,2.8542 -0.4917,0.8562 -0.1167,2.2251 0.36675,3.1095 0.67629,1.23722 2.29212,1.52162 2.81172,2.68532 0.46758,1.0476 0.6801,1.9818 0.1221,2.9685 -1.10127,1.9479 -4.80513,2.7663 -6.60134,3.816 -3.27375,1.9134 -8.81691,6.08516 -8.81691,6.08516 -1.7238,0.3 -3.37596,-0.49586 -4.96551,-1.11386 z"
       id="path13429-0-9-6-3-4-8-4-0-1-8-2"
       style="fill:#002255;stroke:#003380;stroke-miterlimit:4;display:inline" />
    <path
       d="m 146.0004,851.42672 c 1.33404,0.8217 1.80303,2.2974 1.3416,4.00436 -0.2295,0.8481 -0.83433,1.4913 -1.95276,1.6779 -1.69029,-2.30396 -2.55441,-2.85056 -5.17937,-2.71886 3.16949,-3.7017 4.72613,-2.4147 5.79065,-2.9637 z"
       id="path4318-6-0-9-7-12-5-6-4-6-8"
       style="fill:#002255;stroke:#003380;stroke-miterlimit:4;display:inline" />
    <path
       d="m 147.2991,864.76348 c 1.4691,-0.06 2.38431,0.9795 2.54517,2.781 0.0798,0.8952 -0.2451,1.8315 -1.18242,2.6652 -2.28567,-1.0527 -3.24201,-1.0263 -5.54502,0.6564 1.59054,-5.1996 3.41496,-4.9773 4.18236,-6.1026 z"
       id="path4318-6-3-6-65-49-4-55-3-2-5-6"
       style="fill:#002255;stroke:#003380;stroke-miterlimit:4;display:inline" />
    <path
       d="m 155.17319,874.07698 c 1.23141,-1.0689 2.41911,-0.8142 3.25938,0.6135 0.41772,0.7095 0.50517,1.7337 0.03,3.0951 -2.36328,0.6837 -3.16992,1.3686 -4.48077,4.4013 -0.67017,-5.5437 0.97539,-6.6171 1.19178,-8.1102 z"
       id="path4318-6-30-57-13-4-59-8-4-3-0-0"
       style="fill:#002255;stroke:#003380;stroke-miterlimit:4;display:inline" />
    <path
       d="m 187.93213,827.7705 c 0,0 -0.2775,6.9324 -2.45109,8.7072 -0.936,0.7644 -2.24691,1.0812 -3.26811,0.5442 -0.98931,-0.5199 -1.68051,-1.9329 -2.04258,-3.2652 -0.2319,-0.8529 -0.61278,-2.9931 -0.61278,-2.9931 0,0 -3.3228,-2.0253 -5.10651,-2.1771 -2.62542,-0.222 -7.76195,1.905 -7.76195,1.905 0.8769,-3.6318 3.2363,-6.6051 5.71916,-9.5238 l 8.57883,-0.8163 6.9447,7.6194 z"
       id="path5636-3-2-19-6-29-2-2-2-2"
       style="fill:#002255;stroke:#003380;stroke-miterlimit:4;display:inline" />
    <path
       d="m 211.1051,781.67607 c 2.45841,-0.3597 7.50582,-1.6947 9.20034,-3.9009 0.78993,-1.0281 3.00423,-3.9009 3.00423,-3.9009 -0.46932,6.4854 -2.96514,10.689 -8.26173,13.5381 -4.22631,2.2734 -9.10485,2.7993 -13.70667,2.2947 -2.89788,-0.3177 -8.26174,-2.2947 -8.26174,-2.2947 2.94246,4.2021 1.44705,7.16791 -2.25321,9.17821 0,0 0.54828,-4.0239 -0.56328,-4.58881 -2.39721,-1.2186 -5.09997,0.36931 -7.6455,2.23441 -1.88031,1.3776 -4.7274,2.0199 -6.64491,1.9917 -3.1947,-0.048 -4.96518,-0.096 -7.95281,-1.4793 -1.80183,-0.834 -4.92747,-4.01671 -6.25173,-3.70021 -2.85879,0.6825 -6.46947,1.0662 -8.0961,4.01911 -0.56514,1.026 -0.49581,2.6322 0,3.7104 1.11249,2.4189 3.61107,3.6822 5.81916,4.3284 6.56652,1.9221 11.92592,1.9092 18.40655,0.6888 6.67935,-1.2576 14.47899,-3.7767 21.15673,-5.2968 6.61938,-1.5069 15.15357,-4.3542 20.16993,-5.7303 8.86583,-2.43211 12.8432,-2.76691 19.47698,-2.63761 11.61894,0.225 15.42286,7.76521 15.06901,15.99241 -0.36351,8.4522 -7.3648,12.27932 -13.3594,14.65052 -10.53933,4.1691 -25.01084,1.7946 -34.10687,1.5099 0,0 3.04884,3.12 4.43196,4.5465 1.62018,1.671 2.42991,5.1651 4.43187,6.0177 2.7459,1.1691 6.94569,-1.149 9.84872,-1.3542 4.05906,-0.288 10.95648,0.3009 10.95648,0.3009 1.05603,-1.3143 1.74036,-2.2266 2.83785,-2.6199 0.78696,-0.282 2.02563,-0.297 2.65734,-0.003 1.24995,0.5835 2.09079,2.3802 1.56666,5.7249 0,0 0.86619,1.4823 2.18808,1.824 1.39947,0.3621 3.03366,0.042 3.83112,0.3501 1.31559,0.507 3.44614,2.1057 3.44614,2.1057 0,0 -2.25823,0.8742 -3.19783,1.57352 -0.64317,0.4788 -1.50132,2.0634 -1.50132,2.0634 0,0 3.09366,0.066 4.386,0.7656 1.38418,0.7503 2.66287,2.8713 2.66287,2.8713 0,0 -1.86261,-0.162 -2.75038,0.5235 -0.67869,0.5235 -1.79217,1.965 -1.79217,1.965 0,0 3.62128,-0.3597 4.85569,0.957 1.09302,1.1658 2.34954,3.2541 2.34954,3.2541 0,0 -1.95369,-0.051 -2.87859,0.273 -0.60171,0.213 -1.66389,1.065 -1.66389,1.065 0,0 2.50314,1.59446 3.60252,3.44546 0.87837,1.4787 1.09647,4.7859 1.09647,4.7859 0,0 -1.47402,-1.35 -2.37972,-1.8459 -0.56634,-0.3099 -1.8495,-0.261 -1.8495,-0.261 l 0.58641,6.7893 c 0.1443,1.6689 2.0595,3.4764 2.40123,4.7682 0.43095,1.6287 0.32301,2.241 -0.45021,3.6684 -0.98991,1.8279 -3.03453,2.2011 -4.8025,1.8339 -0.97557,-0.204 -2.34633,-1.7073 -2.34633,-1.7073 0,0 -0.99813,2.2533 -1.67091,2.9439 -1.12656,1.1568 -1.66983,1.4766 -3.14013,1.4076 -1.1277,-0.051 -2.07294,-0.7779 -2.85342,-1.7742 -0.89838,-1.1466 -1.52085,-4.5795 -1.52085,-4.5795 l -3.46707,0.8379 c -0.75291,0.18 -3.03483,-1.2216 -3.28932,-2.1066 -0.53316,-1.8543 -0.58485,-3.7284 0.45021,-5.2332 0.98274,-1.4286 3.70059,-1.503 5.08551,-2.2896 1.77435,-1.008 3.47955,-3.9249 3.47955,-3.9249 0,0 -5.79225,-5.4453 -8.29713,-8.83166 -1.37736,-1.8618 -3.74718,-6.2145 -3.74718,-6.2145 0,0 -7.38608,2.7186 -10.17071,3.2709 -6.86928,1.3623 -14.18583,0 -14.18583,0 -10.49965,0 -17.48566,-19.70552 -27.03295,-24.20432 -2.91354,-1.3728 -4.28499,-1.158 -7.33266,-0.327 -11.06309,3.0162 -22.87288,20.14802 -33.83466,23.68082 -4.49913,1.4502 -13.91787,1.9626 -13.91787,1.9626 0,0 -1.54224,4.0593 -3.00063,5.21786 -1.58607,1.2603 -5.56826,1.3425 -5.56826,1.3425 0,0 -1.01844,4.8537 -2.18507,6.6975 -1.21887,1.9266 -4.56834,3.7938 -4.56834,3.7938 0.49488,-2.2137 0.78957,-3.9084 0.0903,-6.7062 0,0 -1.66533,3.8727 -3.28476,5.706 -1.40991,1.5963 -4.84971,3.5694 -4.84971,3.5694 0.276,-2.0646 1.06515,-4.0251 0,-6.363 0,0 -1.415763,3.9123 -2.646633,5.3583 -1.22868,1.443 -4.47849,3.0138 -4.47849,3.0138 0.62952,-2.2326 1.03179,-4.4649 0,-6.6975 0,0 -1.34622,4.0116 -2.55282,5.3583 -1.66596,1.8591 -5.671935,3.8952 -5.671935,3.8952 0.675705,-2.3031 1.325595,-4.6062 0.825765,-6.909 l -2.724735,0 c -3.289291,0 -3.498871,3.6825 -5.030401,5.3628 -1.50417,1.65 -3.94788,1.6872 -5.11866,1.173 -2.06532,-0.9069 -3.90129,-4.0953 -1.39413,-8.7816 -4.3368,0.6159 -6.5967,-2.9913 -6.58587,-6.201 0.009,-3.0834 0.85479,-5.80556 5.22882,-5.47616 0,0 -0.56538,-2.6703 -0.34485,-4.0752 0.30699,-1.956 1.56702,-3.6537 3.27189,-3.4635 0.70098,0.078 2.00184,0.6867 2.59704,1.5378 0.94137,1.347 1.20096,3.3066 2.7666,4.7682 1.77258,1.6551 5.988031,1.5213 5.988031,1.5213 0,0 8.192565,-5.8872 13.596195,-8.2626 2.875263,-1.2639 11.041083,-3.1743 11.041083,-3.1743 l 0.2559,-26.63764 c 4.90718,0.40232 2.79672,0.45872 6.94667,0.29402 5.96081,-0.23702 21.62048,2.9727 21.62048,2.9727 l 11.14997,-1.0131 c 0,0 18.59804,-3.72572 27.44584,-4.89122 4.45719,-0.5868 8.96124,-1.0089 13.43712,-0.6987 6.74199,0.4674 12.53197,2.6883 18.86896,3.1443 5.32818,0.38372 8.96748,1.10582 14.2947,0.69902 7.60616,-0.58112 21.20231,0.102 25.52273,-9.03152 1.12125,-2.37 0.54552,-5.6166 -1.12794,-7.4415 -2.20791,-2.4084 -3.77799,-3.3153 -6.72261,-2.4873 -1.5531,0.4365 -3.52779,1.8852 -3.72162,3.6675 -0.1047,0.9663 0.027,1.8186 0.69042,2.9595 1.14123,1.962 2.4309,2.9088 2.4309,2.9088 0,0 -3.83376,0.234 -5.3361,-1.236 -1.58127,-1.5459 -2.46714,-6.0993 -2.46714,-6.0993 -0.74343,1.2531 -1.29009,2.6262 -1.16481,4.4103 0.108,1.5372 -0.003,2.4993 1.4049,4.8324 0,0 -3.49071,-0.297 -5.16228,-2.6406 -1.12344,-1.5747 -2.04084,-6.3081 -2.04084,-6.3081 -0.99044,1.1943 -1.59497,3.1287 -1.63718,4.5549 -0.0609,2.0595 0.66972,2.9631 1.03691,5.1273 0,0 -3.4409,-1.2357 -4.80191,-3.5208 -1.05633,-1.7736 -1.61988,-6.4311 -1.61988,-6.4311 -3.95802,1.2054 -11.51337,2.91 -19.74099,5.0691 -5.79622,1.521 -14.64823,3.8586 -20.90455,4.8195 -10.74398,1.65 -18.56627,0.7962 -25.17083,-2.6292 -3.43691,-1.7826 -4.98548,-3.4974 -5.87162,-7.545 -0.50292,-2.2977 0.2379,-5.5527 1.94388,-8.08681 2.37836,-3.5328 6.50948,-6.1773 11.12405,-7.575 0,0 12.22175,-4.0101 19.33994,-4.8183 11.41266,-1.296 16.05348,0.6531 20.82319,1.3872 3.09957,0.477 6.4344,-0.3057 7.41036,-1.7292 0.82134,-1.1982 2.1801,-2.4897 0.34947,-5.3784 0,0 2.31951,0.057 3.85965,3.5373 0.62901,1.4217 -0.147,4.707 -0.147,4.707 h 6e-5 z"
       id="path13429-5-2-95-17-2-2-5-4-2-8-4"
       style="fill:#002255;stroke:#003380;stroke-miterlimit:4;display:inline" />
    <path
       d="m 132.67012,821.4237 c 2.26188,1.7004 4.74597,-0.5274 5.25753,-0.7548 0,0 -1.08285,-0.9129 -1.81575,-3.1071 -0.49266,-1.47512 -0.66321,-4.08152 -0.70866,-5.30342 -0.1689,-4.5381 1.32945,-5.2422 1.37826,-4.8987 0,0 2.48868,-1.0305 3.52083,-1.9911 0.97835,-0.9093 1.43024,-2.4882 1.70009,-3.9426 0.4047,-2.1813 -0.30687,-5.3865 -0.30687,-5.3865 -3.6161,-0.252 -4.53548,0.3258 -5.38262,1.6632 0,0 -0.075,-2.229 -0.57732,-4.2648 -0.2505,-1.0149 -0.8289,-2.52571 -1.42176,-3.50371 -0.60936,-1.0053 -1.23,-1.4643 -1.23,-1.4643 -0.021,1.1577 -0.88362,2.2155 -1.32405,3.0231 0,0 -0.36693,-4.4337 -1.28718,-6.024 -0.7098,-1.2264 -2.66904,-2.8599 -2.65464,-2.8548 0.015,0.003 -2.22645,0.156 -3.37137,0.7263 -1.48437,0.741 -3.77037,4.2375 -3.77037,4.2375 -0.012,-0.9672 -0.2649,-2.4189 0.2325,-3.4089 0,0 -0.72747,0 -1.68909,0.4332 -0.93558,0.438 -2.0966,1.3344 -2.75999,2.0265 -1.3311,1.3881 -2.38809,3.2175 -2.38809,3.2175 -0.0597,-1.7523 -0.55356,-2.7612 -3.79343,-4.9047 0,0 -2.02851,2.2374 -2.66016,4.3386 -0.42126,1.4007 -0.74328,3.02551 -0.3255,4.42771 0.44118,1.4811 2.07837,3.9693 2.07837,3.9693 0.1941,-0.258 1.14276,1.3107 -1.02306,5.0244 -0.58305,0.9996 -1.88886,3.0846 -2.96166,4.0065 -1.59573,1.3716 -2.91516,1.4361 -2.91516,1.4361 0.80562,2.532 1.02531,3.5682 4.09308,4.0578 -6.991503,6.06242 -7.785093,15.73382 -2.41716,23.97272 0.34986,-0.9894 1.54839,-3.2358 2.25648,-4.0983 -0.0753,-0.072 0.0903,4.761 2.08584,7.2216 0.64755,0.7986 0.96258,5.24162 1.89819,6.63902 0.8535,1.275 2.05254,2.6613 2.05254,2.6613 0,0 0.93041,-3.5235 2.29487,-4.0728 1.37406,-0.5532 3.94052,-1.4397 4.787,-1.7625 1.70385,-0.6492 4.7385,-5.03582 4.7385,-5.03582 l -0.53313,5.36432 c 9.19836,-3.93992 11.29812,-11.48582 8.94309,-21.66722 z"
       id="path14997-8-0-1-79-2-8-3-7-00-1-1-0-0-7-3-1-6-8"
       style="fill:#002255;stroke:#003380;stroke-miterlimit:4;display:inline" />
    <path
       d="m 232.93024,869.90428 c 1.37436,-0.6939 2.49384,-0.108 3.08595,1.5267 0.2943,0.8118 0.2154,1.8375 -0.46716,3.0324 -2.41839,0 -3.31623,0.435 -5.0829,3.0246 0.234,-5.6064 2.01348,-6.1866 2.4642,-7.5837 z"
       id="path4318-89-91-9-4-5-3-6-0-6"
       style="fill:#002255;stroke:#003380;stroke-miterlimit:4;display:inline" />
    <path
       d="m 240.8863,876.57298 c 1.02546,-1.4031 2.22621,-1.5015 3.28116,-0.3519 0.52431,0.57 0.77838,1.5441 0.53859,3.0111 -2.19321,1.3575 -2.86746,2.2617 -3.64713,5.6031 -1.5666,-5.2128 -0.1377,-6.7404 -0.1725,-8.2605 z"
       id="path4318-1-6-4-6-8-2-0-8-2-5"
       style="fill:#002255;stroke:#003380;stroke-miterlimit:4;display:inline" />
    <path
       d="m 250.72156,875.60458 c 0.71529,-1.7106 1.85524,-2.2227 3.0982,-1.482 0.61779,0.3681 1.05384,1.2204 1.10961,2.7201 -1.85154,2.0724 -2.32545,3.1794 -2.42388,6.6762 -2.53315,-4.4877 -1.45291,-6.4593 -1.78393,-7.9149 z"
       id="path4318-8-04-1-0-4-1-7-5-4-0"
       style="fill:#002255;stroke:#003380;stroke-miterlimit:4;display:inline" />
    <path
       d="m 71.188331,846.69542 c 1.33197,0.8277 1.79712,2.3058 1.33125,4.0107 -0.2316,0.8472 -0.83811,1.4877 -1.95702,1.6692 -1.68438,-2.3118 -2.54712,-2.862 -5.17245,-2.7423 3.17889,-3.6876 4.73235,-2.3934 5.79819,-2.9376 z"
       id="path4318-80-23-4-1-5-1-7-7-8-9"
       style="fill:#002255;stroke:#003380;stroke-miterlimit:4;display:inline" />
    <path
       d="m 65.682071,856.90288 c 1.46913,0.06 2.33514,1.1712 2.41341,2.9823 0.0387,0.9 -0.32817,1.8078 -1.302,2.5641 -2.23332,-1.236 -3.18909,-1.287 -5.56497,0.207 1.82511,-5.0613 3.636,-4.6914 4.45356,-5.7528 z"
       id="path4318-1-4-37-6-2-7-0-8-6-6-0"
       style="fill:#002255;stroke:#003380;stroke-miterlimit:4;display:inline" />
    <path
       d="m 70.063481,869.49478 c 1.30935,-0.8898 2.47017,-0.4689 3.19254,1.0689 0.35898,0.7641 0.3648,1.7955 -0.216,3.0822 -2.40429,0.348 -3.26073,0.9144 -4.8048,3.7452 -0.2268,-5.6067 1.49478,-6.4425 1.82838,-7.8963 z"
       id="path4318-8-6-0-1-3-3-18-7-1-5-0"
       style="fill:#002255;stroke:#003380;stroke-miterlimit:4;display:inline" />
  </g>
</svg>
