<?xml version="1.0" encoding="UTF-8" standalone="no"?>
<svg xmlns:rdf="http://www.w3.org/1999/02/22-rdf-syntax-ns#" xmlns="http://www.w3.org/2000/svg" height="318.9" width="318.9" version="1.1" xmlns:cc="http://creativecommons.org/ns#" xmlns:dc="http://purl.org/dc/elements/1.1/">
	<g>
		<rect height="318.9" width="318.9" y="-.000044199" x="0" fill="#038"/>
		<path d="m53.15 31.899v148.81c0 58.704 47.593 106.29 106.3 106.29s106.3-47.591 106.3-106.29v-148.82h-212.6z" fill="#002c74"/>
		<rect height="127.56" width="212.6" y="31.89" x="53.15" fill="#038"/>
	</g>
	<g fill="#00286a">
		<path style="color:#000000" d="m53.15 138.19v8.5173c2.4184 0 4.345-1.8807 4.345-4.2387s-1.9264-4.2786-4.345-4.2786zm42.52 0c-2.4185 0-4.3848 1.9206-4.3848 4.2786s1.9664 4.2387 4.3848 4.2387 4.345-1.8807 4.345-4.2387-1.9264-4.2786-4.345-4.2786zm42.52 0c-2.4185 0-4.3848 1.9206-4.3848 4.2786s1.9664 4.2387 4.3848 4.2387 4.345-1.8807 4.345-4.2387-1.9264-4.2786-4.345-4.2786zm42.52 0c-2.4186 0-4.3848 1.9206-4.3848 4.2786s1.9664 4.2387 4.3848 4.2387 4.345-1.8807 4.345-4.2387-1.9264-4.2786-4.345-4.2786zm42.52 0c-2.4186 0-4.3849 1.9206-4.3849 4.2786s1.9664 4.2387 4.3849 4.2387c2.4184 0 4.345-1.8807 4.345-4.2387s-1.9264-4.2786-4.345-4.2786zm42.52 0c-2.4186 0-4.3848 1.9206-4.3848 4.2786s1.9664 4.2387 4.3848 4.2387v-8.5173zm-206.35 7.9191c-2.4186 0-4.3982 1.9341-4.3982 4.2918 0 2.3586 1.9796 4.2255 4.3982 4.2255 2.4185 0 4.3848-1.8669 4.3848-4.2255 0-2.3577-1.9662-4.2918-4.3848-4.2918zm29.99 0c-2.4184 0-4.345 1.9341-4.345 4.2918 0 2.3586 1.9268 4.2255 4.345 4.2255 2.4185 0 4.3848-1.8669 4.3848-4.2255 0-2.3577-1.9664-4.2918-4.3848-4.2918zm12.53 0c-2.4185 0-4.3981 1.9341-4.3981 4.2918 0 2.3586 1.9795 4.2255 4.3981 4.2255 2.4185 0 4.3849-1.8669 4.3849-4.2255 0-2.3577-1.9663-4.2918-4.3849-4.2918zm29.99 0c-2.4184 0-4.345 1.9341-4.345 4.2918 0 2.3586 1.9268 4.2255 4.345 4.2255 2.4185 0 4.3848-1.8669 4.3848-4.2255 0-2.3577-1.9664-4.2918-4.3848-4.2918zm12.53 0c-2.4186 0-4.3981 1.9341-4.3981 4.2918 0 2.3586 1.9795 4.2255 4.3981 4.2255 2.4185 0 4.3848-1.8669 4.3848-4.2255 0-2.3577-1.9663-4.2918-4.3848-4.2918zm29.99 0c-2.4184 0-4.345 1.9341-4.345 4.2918 0 2.3586 1.9268 4.2255 4.345 4.2255 2.4186 0 4.3849-1.8669 4.3849-4.2255 0-2.3577-1.9664-4.2918-4.3849-4.2918zm12.53 0c-2.4185 0-4.3982 1.9341-4.3982 4.2918 0 2.3586 1.9796 4.2255 4.3982 4.2255 2.4185 0 4.3848-1.8669 4.3848-4.2255 0-2.3577-1.9662-4.2918-4.3848-4.2918zm29.99 0c-2.4184 0-4.345 1.9341-4.345 4.2918 0 2.3586 1.9268 4.2255 4.345 4.2255 2.4185 0 4.3848-1.8669 4.3848-4.2255 0-2.3577-1.9664-4.2918-4.3848-4.2918zm12.53 0c-2.4185 0-4.3981 1.9341-4.3981 4.2918 0 2.3586 1.9795 4.2255 4.3981 4.2255s4.3849-1.8669 4.3849-4.2255c0-2.3577-1.9662-4.2918-4.3849-4.2918zm29.99 0c-2.4184 0-4.345 1.9341-4.345 4.2918 0 2.3586 1.9268 4.2255 4.345 4.2255 2.4186 0 4.3849-1.8669 4.3849-4.2255 0-2.3577-1.9664-4.2918-4.3849-4.2918zm-206.31 2.3919v10.949 21.26c0 58.705 47.593 106.3 106.3 106.3s106.3-47.594 106.3-106.3v-21.26-10.949c-.64818 3.8187-1.7589 7.4622-2.8834 10.949h-36.779c-1.1128-3.4869-2.2087-7.1304-2.8568-10.949-.64821 3.8187-1.7589 7.4622-2.8834 10.949h-36.779c-1.1128-3.4869-2.2087-7.1304-2.8568-10.949-.64818 3.8187-1.7589 7.4622-2.8834 10.949h-36.78c-1.1128-3.4869-2.2087-7.1304-2.8568-10.949-.64815 3.8187-1.7589 7.4622-2.8834 10.949h-36.779c-1.1128-3.4869-2.2087-7.1304-2.8568-10.949-.64818 3.8187-1.7589 7.4622-2.8834 10.949h-36.779c-1.1128-3.4869-2.2087-7.1304-2.8568-10.949z"/>
		<path style="color:#000000" d="m159.45 106.3c-2.4185 0-4.3849 1.9203-4.3849 4.2783s1.9664 4.2387 4.3849 4.2387c2.4184 0 4.345-1.8807 4.345-4.2387s-1.9264-4.2783-4.345-4.2783zm-6.2849 7.9191c-2.4184 0-4.345 1.9338-4.345 4.2918 0 2.3583 1.9267 4.2255 4.345 4.2255 2.4185 0 4.3848-1.8672 4.3848-4.2255 0-2.358-1.9664-4.2918-4.3848-4.2918zm12.53 0c-2.4185 0-4.3982 1.9338-4.3982 4.2918 0 2.3583 1.9795 4.2255 4.3982 4.2255 2.4185 0 4.3848-1.8672 4.3848-4.2255 0-2.358-1.9662-4.2918-4.3848-4.2918zm-6.2451 2.3919c-1.045 6.1563-3.2818 11.855-4.8632 17.18-1.255 4.2261-2.6242 5.9127-4.1722 9.6867 2.3625-1.0107 4.745-1.3095 6.4045-5.6073.03 3.5622 1.7352 9.2277 2.6309 10.949.89556-1.7211 2.6013-7.3866 2.6309-10.949 1.6598 4.2978 4.042 4.5966 6.4046 5.6073-1.5479-3.7743-2.9571-5.4609-4.2121-9.6867-1.5816-5.325-3.7785-11.024-4.8233-17.18z"/>
		<path style="color:#000000" d="m116.93 106.3c-2.4185 0-4.3848 1.9203-4.3848 4.2783s1.9664 4.2387 4.3848 4.2387 4.345-1.8807 4.345-4.2387-1.9264-4.2783-4.345-4.2783zm-6.2849 7.9191c-2.4184 0-4.345 1.9338-4.345 4.2918 0 2.3583 1.9268 4.2255 4.345 4.2255 2.4186 0 4.3848-1.8672 4.3848-4.2255 0-2.358-1.9663-4.2918-4.3848-4.2918zm12.53 0c-2.4185 0-4.3981 1.9338-4.3981 4.2918 0 2.3583 1.9795 4.2255 4.3981 4.2255s4.3848-1.8672 4.3848-4.2255c0-2.358-1.9662-4.2918-4.3848-4.2918zm-6.2451 2.3919c-1.045 6.1563-3.2818 11.855-4.8632 17.18-1.255 4.2261-2.6242 5.9127-4.1722 9.6867 2.3625-1.0101 4.745-1.3095 6.4045-5.6073.03 3.5622 1.7352 9.2277 2.6309 10.949.89555-1.7211 2.6013-7.3866 2.6309-10.949 1.6598 4.2978 4.042 4.5966 6.4045 5.6073-1.5479-3.7743-2.9571-5.4609-4.2121-9.6867-1.5816-5.325-3.7785-11.024-4.8233-17.18z"/>
		<path style="color:#000000" d="m74.409 106.3c-2.4185 0-4.3849 1.9203-4.3849 4.2783s1.9664 4.2387 4.3849 4.2387c2.4184 0 4.345-1.8807 4.345-4.2387s-1.9264-4.2783-4.345-4.2783zm-6.2849 7.9191c-2.4184 0-4.345 1.9338-4.345 4.2918 0 2.3583 1.9268 4.2255 4.345 4.2255 2.4186 0 4.3848-1.8672 4.3848-4.2255 0-2.358-1.9664-4.2918-4.3848-4.2918zm12.53 0c-2.4186 0-4.3982 1.9338-4.3982 4.2918 0 2.3583 1.9795 4.2255 4.3982 4.2255 2.4185 0 4.3848-1.8672 4.3848-4.2255 0-2.358-1.9662-4.2918-4.3848-4.2918zm-6.2451 2.3919c-1.045 6.1563-3.2818 11.855-4.8632 17.18-1.255 4.2261-2.6242 5.9127-4.1722 9.6867 2.3625-1.0101 4.745-1.3095 6.4045-5.6073.03 3.5622 1.7352 9.2277 2.6309 10.949.89556-1.7211 2.6013-7.3866 2.6309-10.949 1.6598 4.2978 4.042 4.5966 6.4045 5.6073-1.5479-3.7743-2.9571-5.4609-4.2121-9.6867-1.5817-5.325-3.7785-11.024-4.8233-17.18z"/>
		<path style="color:#000000" d="m201.97 106.3c-2.4186 0-4.3848 1.9203-4.3848 4.2783s1.9664 4.2387 4.3848 4.2387 4.345-1.8807 4.345-4.2387-1.9264-4.2783-4.345-4.2783zm-6.285 7.9191c-2.4184 0-4.345 1.9338-4.345 4.2918 0 2.3583 1.9268 4.2255 4.345 4.2255 2.4186 0 4.3849-1.8672 4.3849-4.2255 0-2.358-1.9664-4.2918-4.3849-4.2918zm12.53 0c-2.4185 0-4.3981 1.9338-4.3981 4.2918 0 2.3583 1.9795 4.2255 4.3981 4.2255s4.3848-1.8672 4.3848-4.2255c0-2.358-1.9662-4.2918-4.3848-4.2918zm-6.2451 2.3919c-1.045 6.1563-3.2818 11.855-4.8632 17.18-1.255 4.2261-2.6242 5.9127-4.1723 9.6867 2.3625-1.0101 4.745-1.3095 6.4045-5.6073.03 3.5622 1.7352 9.2277 2.6309 10.949.89556-1.7211 2.6013-7.3866 2.6309-10.949 1.6598 4.2978 4.042 4.5966 6.4045 5.6073-1.5479-3.7743-2.9571-5.4609-4.2121-9.6867-1.5816-5.325-3.7785-11.024-4.8233-17.18z"/>
		<path style="color:#000000" d="m244.49 106.3c-2.4186 0-4.3849 1.9203-4.3849 4.2783s1.9664 4.2387 4.3849 4.2387c2.4184 0 4.3449-1.8807 4.3449-4.2387s-1.9264-4.2783-4.3449-4.2783zm-6.2849 7.9191c-2.4184 0-4.345 1.9338-4.345 4.2918 0 2.3583 1.9268 4.2255 4.345 4.2255 2.4186 0 4.3848-1.8672 4.3848-4.2255 0-2.358-1.9664-4.2918-4.3848-4.2918zm12.53 0c-2.4186 0-4.3981 1.9338-4.3981 4.2918 0 2.3583 1.9795 4.2255 4.3981 4.2255s4.3848-1.8672 4.3848-4.2255c0-2.358-1.9662-4.2918-4.3848-4.2918zm-6.2451 2.3919c-1.045 6.1563-3.2818 11.855-4.8632 17.18-1.255 4.2261-2.6242 5.9127-4.1722 9.6867 2.3625-1.0101 4.745-1.3095 6.4045-5.6073.03 3.5622 1.7353 9.2277 2.6309 10.949.89553-1.7211 2.6013-7.3866 2.6309-10.949 1.6597 4.2978 4.042 4.5966 6.4046 5.6073-1.548-3.7743-2.9571-5.4609-4.2122-9.6867-1.5816-5.325-3.7785-11.024-4.8233-17.18z"/>
		<path style="color:#000000" d="m138.19 74.409c-2.4185 0-4.3848 1.9206-4.3848 4.2786s1.9664 4.2387 4.3848 4.2387 4.345-1.8807 4.345-4.2387-1.9264-4.2786-4.345-4.2786zm-6.2849 7.9194c-2.4184 0-4.345 1.9338-4.345 4.2918s1.9268 4.2255 4.345 4.2255c2.4185 0 4.3848-1.8675 4.3848-4.2255s-1.9664-4.2918-4.3848-4.2918zm12.53 0c-2.4186 0-4.3981 1.9338-4.3981 4.2918s1.9795 4.2255 4.3981 4.2255c2.4185 0 4.3848-1.8675 4.3848-4.2255s-1.9663-4.2918-4.3848-4.2918zm-6.2451 2.3916c-1.045 6.1566-3.2818 11.856-4.8632 17.181-1.255 4.2261-2.6242 5.9127-4.1722 9.6864 2.3625-1.0101 4.745-1.3095 6.4045-5.6073.03 3.5622 1.7353 9.2277 2.6309 10.949.89556-1.7211 2.6014-7.3869 2.631-10.949 1.6597 4.2981 4.042 4.5972 6.4045 5.6073-1.5479-3.774-2.9571-5.4609-4.2122-9.6864-1.5816-5.325-3.7785-11.024-4.8233-17.181z"/>
		<path style="color:#000000" d="m95.669 74.409c-2.4186 0-4.3848 1.9206-4.3848 4.2786s1.9664 4.2387 4.3848 4.2387 4.345-1.8807 4.345-4.2387-1.9264-4.2786-4.345-4.2786zm-6.2849 7.9194c-2.4184 0-4.345 1.9338-4.345 4.2918 0 2.3583 1.9268 4.2255 4.345 4.2255 2.4186 0 4.3848-1.8672 4.3848-4.2255 0-2.358-1.9664-4.2918-4.3848-4.2918zm12.53 0c-2.4185 0-4.3981 1.9338-4.3981 4.2918 0 2.3583 1.9795 4.2255 4.3981 4.2255s4.3848-1.8672 4.3848-4.2255c0-2.358-1.9662-4.2918-4.3848-4.2918zm-6.2451 2.3916c-1.045 6.1566-3.2818 11.856-4.8632 17.181-1.255 4.2261-2.6242 5.9127-4.1722 9.6867 2.3625-1.0104 4.745-1.3098 6.4046-5.6073.03 3.5619 1.7352 9.2277 2.6309 10.949.89553-1.7211 2.6013-7.3869 2.6309-10.949 1.6598 4.2978 4.0421 4.5969 6.4045 5.6073-1.5479-3.7743-2.9571-5.4612-4.2121-9.6867-1.5817-5.325-3.7785-11.024-4.8233-17.181z"/>
		<path style="color:#000000" d="m53.15 74.409v8.5173c2.4184 0 4.345-1.8807 4.345-4.2387s-1.9264-4.2786-4.345-4.2786zm6.2451 7.9194c-2.4185 0-4.3981 1.9338-4.3981 4.2918 0 2.3583 1.9795 4.2255 4.3981 4.2255s4.3849-1.8672 4.3849-4.2255c0-2.358-1.9663-4.2918-4.3849-4.2918zm-6.2451 2.3916v32.209c.89553-1.7211 2.6013-7.3869 2.6309-10.949 1.6597 4.2978 4.042 4.5969 6.4045 5.6073-1.5479-3.7743-2.9571-5.4612-4.2121-9.6867-1.5816-5.325-3.7785-11.024-4.8233-17.181z"/>
		<path style="color:#000000" d="m180.71 74.409c-2.4186 0-4.3848 1.9206-4.3848 4.2786s1.9664 4.2387 4.3848 4.2387 4.345-1.8807 4.345-4.2387-1.9264-4.2786-4.345-4.2786zm-6.2849 7.9194c-2.4184 0-4.345 1.9338-4.345 4.2918 0 2.3583 1.9268 4.2255 4.345 4.2255 2.4186 0 4.3848-1.8672 4.3848-4.2255 0-2.358-1.9664-4.2918-4.3848-4.2918zm12.53 0c-2.4185 0-4.3981 1.9338-4.3981 4.2918 0 2.3583 1.9795 4.2255 4.3981 4.2255s4.3849-1.8672 4.3849-4.2255c0-2.358-1.9663-4.2918-4.3849-4.2918zm-6.245 2.3916c-1.045 6.1566-3.2818 11.856-4.8632 17.181-1.255 4.2261-2.6242 5.9127-4.1722 9.6867 2.3625-1.0104 4.745-1.3098 6.4045-5.6073.03 3.5619 1.7352 9.2277 2.6309 10.949.89553-1.7211 2.6013-7.3869 2.6309-10.949 1.6597 4.2978 4.042 4.5969 6.4045 5.6073-1.5479-3.7743-2.9571-5.4612-4.2121-9.6867-1.5816-5.325-3.7785-11.024-4.8233-17.181z"/>
		<path style="color:#000000" d="m223.23 74.409c-2.4185 0-4.3848 1.9206-4.3848 4.2786s1.9664 4.2387 4.3848 4.2387c2.4185 0 4.345-1.8807 4.345-4.2387s-1.9264-4.2786-4.345-4.2786zm-6.2849 7.9194c-2.4184 0-4.345 1.9338-4.345 4.2918 0 2.3583 1.9268 4.2255 4.345 4.2255 2.4186 0 4.3849-1.8672 4.3849-4.2255 0-2.358-1.9664-4.2918-4.3849-4.2918zm12.53 0c-2.4185 0-4.3981 1.9338-4.3981 4.2918 0 2.3583 1.9796 4.2255 4.3981 4.2255 2.4186 0 4.3849-1.8672 4.3849-4.2255 0-2.358-1.9662-4.2918-4.3849-4.2918zm-6.2451 2.3916c-1.045 6.1566-3.2818 11.856-4.8632 17.181-1.255 4.2261-2.6242 5.9127-4.1722 9.6867 2.3625-1.0104 4.745-1.3098 6.4045-5.6073.03 3.5619 1.7352 9.2277 2.6309 10.949.89556-1.7211 2.6013-7.3869 2.6309-10.949 1.6598 4.2978 4.042 4.5969 6.4045 5.6073-1.5479-3.7743-2.9571-5.4612-4.2121-9.6867-1.5817-5.325-3.7785-11.024-4.8234-17.181z"/>
		<path style="color:#000000" d="m265.75 74.409c-2.4185 0-4.3848 1.9206-4.3848 4.2786s1.9664 4.2387 4.3848 4.2387v-8.5173zm-6.2849 7.9194c-2.4184 0-4.345 1.9338-4.345 4.2918 0 2.3583 1.9268 4.2255 4.345 4.2255 2.4186 0 4.3848-1.8672 4.3848-4.2255 0-2.358-1.9664-4.2918-4.3848-4.2918zm6.2849 2.3916c-1.0449 6.1566-3.2818 11.856-4.8632 17.181-1.255 4.2261-2.6242 5.9127-4.1722 9.6867 2.3625-1.0104 4.745-1.3098 6.4045-5.6073.03 3.5619 1.7352 9.2277 2.6309 10.949v-32.209z"/>
		<path style="color:#000000" d="m159.45 42.52c-2.4185 0-4.3849 1.9203-4.3849 4.2786 0 2.358 1.9664 4.2387 4.3849 4.2387 2.4184 0 4.345-1.8807 4.345-4.2387 0-2.3583-1.9264-4.2786-4.345-4.2786zm-6.2849 7.9191c-2.4184 0-4.345 1.9338-4.345 4.2921 0 2.358 1.9267 4.2252 4.345 4.2252 2.4185 0 4.3848-1.8672 4.3848-4.2252 0-2.3583-1.9664-4.2921-4.3848-4.2921zm12.53 0c-2.4185 0-4.3982 1.9338-4.3982 4.2921 0 2.358 1.9795 4.2252 4.3982 4.2252 2.4185 0 4.3848-1.8672 4.3848-4.2252 0-2.3583-1.9662-4.2921-4.3848-4.2921zm-6.2451 2.3919c-1.045 6.1566-3.2818 11.855-4.8632 17.181-1.255 4.2258-2.6242 5.9124-4.1722 9.6864 2.3625-1.0104 4.745-1.3095 6.4045-5.6073.03 3.5622 1.7352 9.2277 2.6309 10.949.89556-1.7208 2.6013-7.3866 2.6309-10.949 1.6598 4.2978 4.042 4.5969 6.4046 5.6073-1.5479-3.7743-2.9571-5.4609-4.2121-9.6864-1.5816-5.3253-3.7785-11.024-4.8233-17.181z"/>
		<path style="color:#000000" d="m116.93 42.52c-2.4185 0-4.3848 1.9203-4.3848 4.2786 0 2.358 1.9664 4.2387 4.3848 4.2387s4.345-1.8807 4.345-4.2387c0-2.3583-1.9264-4.2786-4.345-4.2786zm-6.2849 7.9191c-2.4184 0-4.345 1.9341-4.345 4.2921s1.9268 4.2252 4.345 4.2252c2.4186 0 4.3848-1.8672 4.3848-4.2252s-1.9663-4.2921-4.3848-4.2921zm12.53 0c-2.4185 0-4.3981 1.9341-4.3981 4.2921s1.9795 4.2252 4.3981 4.2252 4.3848-1.8672 4.3848-4.2252-1.9662-4.2921-4.3848-4.2921zm-6.2451 2.3919c-1.045 6.1566-3.2818 11.855-4.8632 17.181-1.255 4.2258-2.6242 5.9127-4.1722 9.6864 2.3625-1.0104 4.745-1.3095 6.4045-5.6073.03 3.5622 1.7352 9.2277 2.6309 10.949.89555-1.7211 2.6013-7.3869 2.6309-10.949 1.6598 4.2978 4.042 4.5969 6.4045 5.6073-1.5479-3.7743-2.9571-5.4609-4.2121-9.6864-1.5816-5.3253-3.7785-11.024-4.8233-17.181z"/>
		<path style="color:#000000" d="m74.409 42.52c-2.4185 0-4.3849 1.9203-4.3849 4.2786 0 2.358 1.9664 4.2387 4.3849 4.2387 2.4184 0 4.345-1.8807 4.345-4.2387 0-2.3583-1.9264-4.2786-4.345-4.2786zm-6.2849 7.9191c-2.4184 0-4.345 1.9341-4.345 4.2921s1.9268 4.2252 4.345 4.2252c2.4186 0 4.3848-1.8672 4.3848-4.2252s-1.9664-4.2921-4.3848-4.2921zm12.53 0c-2.4186 0-4.3982 1.9341-4.3982 4.2921s1.9795 4.2252 4.3982 4.2252c2.4185 0 4.3848-1.8672 4.3848-4.2252s-1.9662-4.2921-4.3848-4.2921zm-6.2451 2.3919c-1.045 6.1566-3.2818 11.855-4.8632 17.181-1.255 4.2258-2.6242 5.9127-4.1722 9.6864 2.3625-1.0104 4.745-1.3095 6.4045-5.6073.03 3.5622 1.7352 9.2277 2.6309 10.949.89556-1.7211 2.6013-7.3869 2.6309-10.949 1.6598 4.2978 4.042 4.5969 6.4045 5.6073-1.5479-3.7743-2.9571-5.4609-4.2121-9.6864-1.5817-5.3253-3.7785-11.024-4.8233-17.181z"/>
		<path style="color:#000000" d="m201.97 42.52c-2.4186 0-4.3848 1.9203-4.3848 4.2786 0 2.358 1.9664 4.2387 4.3848 4.2387s4.345-1.8807 4.345-4.2387c0-2.3583-1.9264-4.2786-4.345-4.2786zm-6.285 7.9191c-2.4184 0-4.345 1.9341-4.345 4.2921s1.9268 4.2252 4.345 4.2252c2.4186 0 4.3849-1.8672 4.3849-4.2252s-1.9664-4.2921-4.3849-4.2921zm12.53 0c-2.4185 0-4.3981 1.9341-4.3981 4.2921s1.9795 4.2252 4.3981 4.2252 4.3848-1.8672 4.3848-4.2252-1.9662-4.2921-4.3848-4.2921zm-6.2451 2.3919c-1.045 6.1566-3.2818 11.855-4.8632 17.181-1.255 4.2258-2.6242 5.9127-4.1723 9.6864 2.3625-1.0104 4.745-1.3095 6.4045-5.6073.03 3.5622 1.7352 9.2277 2.6309 10.949.89556-1.7211 2.6013-7.3869 2.6309-10.949 1.6598 4.2978 4.042 4.5969 6.4045 5.6073-1.5479-3.7743-2.9571-5.4609-4.2121-9.6864-1.5816-5.3253-3.7785-11.024-4.8233-17.181z"/>
		<path style="color:#000000" d="m244.49 42.52c-2.4186 0-4.3849 1.9203-4.3849 4.2786 0 2.358 1.9664 4.2387 4.3849 4.2387 2.4184 0 4.3449-1.8807 4.3449-4.2387 0-2.3583-1.9264-4.2786-4.3449-4.2786zm-6.2849 7.9191c-2.4184 0-4.345 1.9341-4.345 4.2921s1.9268 4.2252 4.345 4.2252c2.4186 0 4.3848-1.8672 4.3848-4.2252s-1.9664-4.2921-4.3848-4.2921zm12.53 0c-2.4186 0-4.3981 1.9341-4.3981 4.2921s1.9795 4.2252 4.3981 4.2252 4.3848-1.8672 4.3848-4.2252-1.9662-4.2921-4.3848-4.2921zm-6.2451 2.3919c-1.045 6.1566-3.2818 11.855-4.8632 17.181-1.255 4.2258-2.6242 5.9127-4.1722 9.6864 2.3625-1.0104 4.745-1.3095 6.4045-5.6073.03 3.5622 1.7353 9.2277 2.6309 10.949.89553-1.7211 2.6013-7.3869 2.6309-10.949 1.6597 4.2978 4.042 4.5969 6.4046 5.6073-1.548-3.7743-2.9571-5.4609-4.2122-9.6864-1.5816-5.3253-3.7785-11.024-4.8233-17.181z"/>
		<path style="color:#000000" d="m135.31 31.89c-.68835 2.1342-1.3794 4.2099-1.9798 6.2316-1.255 4.2261-2.6242 5.9127-4.1722 9.6867 2.3625-1.0104 4.745-1.3098 6.4045-5.6073.03 3.5619 1.7352 9.2277 2.6309 10.949.89553-1.7208 2.6013-7.3866 2.6309-10.949 1.6598 4.2978 4.042 4.5969 6.4045 5.6073-1.5479-3.7743-2.9571-5.4609-4.2121-9.6867-.60057-2.0217-1.2853-4.0974-1.9665-6.2316h-5.7402z"/>
		<path style="color:#000000" d="m92.786 31.89c-.68832 2.1342-1.3794 4.2099-1.9798 6.2316-1.255 4.2261-2.6242 5.9127-4.1722 9.6867 2.3625-1.0104 4.745-1.3098 6.4046-5.6073.03 3.5619 1.7352 9.2277 2.6309 10.949.89553-1.7208 2.6013-7.3866 2.6309-10.949 1.6598 4.2978 4.0421 4.5969 6.4045 5.6073-1.5479-3.7743-2.9571-5.4609-4.2121-9.6867-.60057-2.0217-1.2854-4.0974-1.9665-6.2316h-5.7402z"/>
		<path style="color:#000000" d="m53.15 31.89v21.26c.89553-1.7208 2.6013-7.3866 2.6309-10.949 1.6597 4.2978 4.042 4.5969 6.4045 5.6073-1.5479-3.7743-2.9571-5.4609-4.2121-9.6867-.60054-2.0217-1.2853-4.0974-1.9665-6.2316h-2.8568z"/>
		<path style="color:#000000" d="m177.83 31.89c-.68835 2.1342-1.3794 4.2099-1.9798 6.2316-1.255 4.2261-2.6242 5.9127-4.1722 9.6867 2.3625-1.0104 4.745-1.3098 6.4045-5.6073.03 3.5619 1.7352 9.2277 2.6309 10.949.89553-1.7208 2.6013-7.3866 2.6309-10.949 1.6597 4.2978 4.042 4.5969 6.4045 5.6073-1.5479-3.7743-2.9571-5.4609-4.2121-9.6867-.60057-2.0217-1.2854-4.0974-1.9665-6.2316h-5.7401z"/>
		<path style="color:#000000" d="m220.34 31.89c-.68832 2.1342-1.3794 4.2099-1.9798 6.2316-1.255 4.2261-2.6242 5.9127-4.1722 9.6867 2.3625-1.0104 4.745-1.3098 6.4045-5.6073.03 3.5619 1.7352 9.2277 2.6309 10.949.89556-1.7208 2.6013-7.3866 2.6309-10.949 1.6598 4.2978 4.042 4.5969 6.4045 5.6073-1.5479-3.7743-2.9571-5.4609-4.2121-9.6867-.60057-2.0217-1.2853-4.0974-1.9665-6.2316h-5.7402z"/>
		<path style="color:#000000" d="m262.86 31.89c-.68832 2.1342-1.3794 4.2099-1.9798 6.2316-1.255 4.2261-2.6242 5.9127-4.1722 9.6867 2.3625-1.0104 4.745-1.3098 6.4045-5.6073.03 3.5619 1.7352 9.2277 2.6309 10.949v-21.26h-2.8833z"/>
	</g>
	<path d="m151.13 268.36a8.3157 8.317 0 0 1 -8.3161 8.3169 9.6022 9.6036 0 0 0 16.632 0 9.6022 9.6036 0 0 0 16.632 0 8.3157 8.317 0 0 1 -8.3161 -8.3169v-36.809h36.817a8.3157 8.317 0 0 1 8.3157 8.3169 9.6022 9.6036 0 0 0 0 -16.634 9.6022 9.6036 0 0 0 0 -16.634 8.3157 8.317 0 0 1 -8.3157 8.3169h-36.824v-36.822a8.3157 8.317 0 0 1 8.3161 -8.3172 9.6022 9.6036 0 0 0 -16.632 0 9.6022 9.6036 0 0 0 -16.632 0 8.3157 8.317 0 0 1 8.316 8.3172v36.822h-36.814a8.3157 8.317 0 0 1 -8.3161 -8.3169 9.6022 9.6036 0 0 0 0 16.634 9.6022 9.6036 0 0 0 0 16.634 8.3157 8.317 0 0 1 8.3161 -8.3169h36.817z" fill="#038"/>
	<g stroke="#038" fill="#00286a">
		<path d="m80.125 47.594c1.0148 1.6767 1.4766 2.8022 1.5938 4.1562-1.1358.73332-2.5625 2.25-2.5625 2.25-1.563-5.0031-3.5734-5.3574-5.875-4.0938-.09343.05127-.18824.13028-.28125.1875-.92278-.62695-2.1939-1.594-5.2812-.6875 1.565 1.0466 2.3435 1.8765 2.875 3.2188-.87632 1.6466-1.1048 3.8454.1875 6.4688-2.6785-.50452-4.1092.70744-4.8125 2.3438-1.0044-.02991-2.3907.15789-4.5625 2.3438 2.0777.09734 3.044.51749 4.125 1.9062.31241 1.5398 1.2861 3.649 2.875 4.5 1.8848 1.0098 4.7083-.2883 6.0625 3.375l1.125 3.0625c-1.5092 1.5084-3.5047 1.7365-5.5 1.9375 0 0 3.176 3.6024 5.25 4.6875 1.5023.7845 5.0625.625 5.0625.625-1.237 2.0712-3.0763 2.5592-5 2.7812 0 0 2.5106 2.9484 4.0938 3.7188 1.586.7719 5.0938.75 5.0938.75-1.3016 2.1519-3.0974 2.0787-4.75 2.625 0 0 2.9152 2.9976 4.6875 3.9062 2.0359 1.0443 5.5938 1.3125 5.5938 1.3125-1.7955 1.9347-3.1771 2.2918-5.0312 2.6562 0 0 2.7792 2.9714 4.7188 3.5312 1.8565.5358 5.9062-.34375 5.9062-.34375s1.6866 4.3812 3.2812 5.625c1.4666 1.1427 5.125 1.1875 5.125 1.1875l9.4062-.25-.79-19.38h-8.625l-.21875.15625s-3.8697-5.7918-6-8.4688c-4.008-5.03-12.722-14.218-12.722-14.218s-1.8128-4.6244-1.3125-7.2812c.44196-2.3466 1.792-3.4581 2.4062-5.0625.38856-1.014.2941-2.7192.0625-3.5312-.197-.690-.535-1.211-.969-1.594-.967-.808-1.128-3.235-5.25-4.406z"/>
		<path d="m180.31 84.625-16.094 5.25c2.9308 1.7913 9.5049 7.9283 8.9688 10.25-.2007.8685-1.5823 1.681-2.25 2.8438-.4917.8562-.1397 2.2406.34375 3.125.67629 1.2372 2.2929 1.5238 2.8125 2.6875.46758 1.0476.683 1.982.125 2.9688-1.1013 1.9479-4.7975 2.7628-6.5938 3.8125-3.2738 1.9134-8.8125 6.0938-8.8125 6.0938-1.7238.3-3.3792-.507-4.9688-1.125-1.5206-.5913-3.3871-3.2623-5-3.25-.93598 0-1.7168.39939-2.375 1.0312-.13959-.12232-.302-.24104-.46875-.34375-1.0645.549-2.6118-.73295-5.7812 2.9688 2.625-.1317 3.466.41479 5.1562 2.7188.0204-.003.0424.004.0625 0 .16072.47472.34467.86039.53125 1.0312l2.9375 2.6875s-1.8115 2.761-1.9688 4.3438c-.89038.76515-2.4369 1.1906-3.8125 5.6875 2.303-1.6827 3.2456-1.709 5.5312-.65625.0996-.0886.16396-.19048.25-.28125.45509.57046.8807.90107 1.875 1.0938.91518.177 3.0938-.375 3.0938-.375s-.0664 2.2748.46875 3.3125c.16646.32297.35838.63626.5625.9375-.50495 1.2241-1.4812 2.7835-.9375 7.2812 1.3108-3.0327 2.1367-3.7226 4.5-4.4062.0715-.20477.10944-.37291.15625-.5625.0739-.005.14411.0105.21875 0 1.4685-.207 1.9426-.4813 2.7188-1.9375.61542-1.1547.5007-4.1276 1.5-5.3438l4.0625-4.9375c1.7546 1.4148 1.7182 3.5122 1.5 5.6875 0 0 2.599-2.1768 3.375-3.75.8085-1.6386 1.125-5.5 1.125-5.5 1.6515 1.9845 2.1977 3.7541 1.8438 6.125 0 0 2.6457-2.2218 3.5-3.7812.96186-1.7553 1.8125-5.5312 1.8125-5.5312 1.2091 1.5672 1.4615 3.7742 1 6.5 0 0 2.9568-2.647 3.75-4.7812.62709-1.6872 1-4.625 1-4.625 3.6058.3489 5.935-1.742 6.0938-3.9062.123-1.6782-1.2842-3.9608-4.1875-4.625 0 0-1.0943-2.142-1.5-3.7188-.2787-1.0839-.2997-2.3298 0-3.4062.59928-2.1534 2.0106-3.9526 3.4375-5.5 1.9628-2.1285 6.2188-4.8125 6.2188-4.8125l-1.25-8.3438-14.531-2.9375z"/>
		<path d="m187.93 94.307s-.2775 6.9324-2.4511 8.7072c-.936.7644-2.2469 1.0812-3.2681.5442-.98931-.5199-1.6805-1.9329-2.0426-3.2652-.2319-.8529-.61278-2.9931-.61278-2.9931s-3.3228-2.0253-5.1065-2.1771c-2.6254-.222-7.762 1.905-7.762 1.905.8769-3.6318 3.2363-6.6051 5.7192-9.5238l8.5788-.8163 6.9447 7.6194z"/>
		<path d="m207.38 39.969c1.8306 2.8887.47759 4.1768-.34375 5.375-.97596 1.4235-4.3067 2.227-7.4062 1.75-4.7697-.7341-9.3998-2.7022-20.812-1.4062-7.1182.8082-19.344 4.8125-19.344 4.8125-4.6146 1.3977-8.7466 4.061-11.125 7.5938-1.706 2.5341-2.4404 5.796-1.9375 8.0938.88614 4.0476 2.4381 5.7486 5.875 7.5312 6.6046 3.4254 14.412 4.275 25.156 2.625 6.2563-.9609 15.11-3.2915 20.906-4.8125 8.2276-2.1591 15.792-3.8571 19.75-5.0625 0 0 .56867 4.6326 1.625 6.4062 1.361 2.2851 4.7812 3.5312 4.7812 3.5312-.36719-2.1642-1.0922-3.0655-1.0312-5.125.0422-1.4262.63456-3.3682 1.625-4.5625 0 0 .93906 4.7378 2.0625 6.3125 1.6716 2.3436 5.1562 2.6562 5.1562 2.6562-1.4079-2.3331-1.2982-3.3066-1.4062-4.8438-.12528-1.7841.41282-3.1532 1.1562-4.4062 0 0 .88748 4.5478 2.4688 6.0938 1.5023 1.47 5.3438 1.25 5.3438 1.25s-1.2963-.94425-2.4375-2.9062c-.66342-1.1409-.7922-2.0024-.6875-2.9688.19383-1.7823 2.1656-3.251 3.7188-3.6875 2.9446-.828 4.5108.0916 6.7188 2.5 1.6735 1.8249 2.2462 5.0675 1.125 7.4375-4.3204 9.1335-17.894 8.4501-25.5 9.0312-5.3272.4068-8.9843-.30378-14.312-.6875-6.337-.456-12.133-2.6888-18.875-3.1562-4.4759-.3102-8.9803.13195-13.438.71875-8.8478 1.1655-27.438 4.875-27.438 4.875l-11.156 1.0312s-15.633-3.237-21.594-3c-4.15.1647-2.0616.12107-6.9688-.28125l-.25 26.625s-8.156 1.9236-11.031 3.1875c-5.4036 2.3754-13.594 8.25-13.594 8.25s-4.2274.1551-6-1.5c-1.5656-1.4616-1.8086-3.4342-2.75-4.7812-.5952-.8511-1.924-1.4532-2.625-1.5312-.54834-.0612-1.0294.0998-1.4688.375-.04279-.0293-.08025-.0659-.125-.0937-1.0658.5442-2.6336-.7501-5.8125 2.9375 2.0034-.0914 2.9948.2322 4.0938 1.4062.05875 1.3595.40625 2.9062.40625 2.9062-3.4898-.26281-4.7289 1.4317-5.0938 3.6875-.93331.5743-2.2524 1.3981-3.5625 5.0312 1.6491-1.037 2.6296-1.3001 3.8125-.96875.80340 2.397 2.8762 4.4078 6.1875 3.9375-.78349 1.4645-1.1267 2.7895-1.1875 3.9375-.000579.0109.000525.0204 0 .0312-.38424 1.398-2.0031 2.3287-1.7812 7.8125 1.2419-2.2768 2.0472-3.0883 3.5625-3.5.26251.20633.53106.37642.8125.5 1.1708.5142 3.6208.4625 5.125-1.1875 1.5315-1.6803 1.742-5.3438 5.0312-5.3438h2.7188c.49983 2.3028-.16804 4.6032-.84375 6.9062 0 0 4.0215-2.0472 5.6875-3.9062 1.2066-1.3467 2.5625-5.3438 2.5625-5.3438 1.0318 2.2326.62952 4.4549 0 6.6875 0 0 3.2401-1.557 4.4688-3 1.2309-1.446 2.6562-5.375 2.6562-5.375 1.0652 2.3379.276 4.3104 0 6.375 0 0 3.4338-1.9974 4.8438-3.5938 1.6194-1.8333 3.2812-5.6875 3.2812-5.6875.69927 2.7978.40113 4.4738-.0937 6.6875 0 0 3.3436-1.8546 4.5625-3.7812 1.1666-1.8438 2.1875-6.6875 2.1875-6.6875s3.9764-.0834 5.5625-1.3438c1.4584-1.1586 3-5.2188 3-5.2188s9.4384-.51855 13.938-1.9688c10.962-3.5328 22.749-20.671 33.812-23.688 3.0477-.831 4.4302-1.029 7.3438.34375 9.54 4.506 16.52 24.195 27.02 24.195 0 0 7.3182 1.3623 14.188 0 2.7846-.5523 10.156-3.25 10.156-3.25s2.3726 4.3257 3.75 6.1875c2.5049 3.3864 8.3125 8.8438 8.3125 8.8438s-1.6944 2.9295-3.4688 3.9375c-1.3849.7866-4.111.85265-5.0938 2.2812-.65858.95746-.87793 2.0625-.8125 3.2188-.69187 1.0474-1.874 2.2973-2.0625 6.8125 1.6112-2.3617 2.5217-2.918 4.5-3 .48564.23453.95523.3755 1.2188.3125l3.47-.84s.41214 2.319 1.0625 3.7812c-.31298 1.3175-.84061 3.1528.34375 7.0938.5901-2.529 1.1077-3.6663 2.2812-4.6562.22028.0662.45139.11432.6875.125 1.4703.069 1.9984-.24945 3.125-1.4062.67278-.6906 1.6875-2.9375 1.6875-2.9375s.99973 1.093 1.9062 1.5312c-.0194 1.3331.1393 3.1778 1.75 6.0312.0917-3.2585.53897-4.4581 2.0938-6.2812.55604-.31418 1.0244-.75887 1.375-1.4062.77322-1.4274.8997-2.0276.46875-3.6562-.34173-1.2918-2.262-3.1124-2.4062-4.7812l-.59375-6.7812s1.2774-.0599 1.8438.25c.9057.4959 2.375 1.8438 2.375 1.8438s-.21538-3.3026-1.0938-4.7812c-1.0994-1.851-3.5938-3.4375-3.5938-3.4375s1.0545-.8495 1.6562-1.0625c.9249-.324 2.875-.28125 2.875-.28125s-1.2507-2.0842-2.3438-3.25c-1.2344-1.3167-4.8438-.96875-4.8438-.96875s1.1026-1.4452 1.7812-1.9688c.88777-.6855 2.75-.5 2.75-.5s-1.2721-2.1247-2.6562-2.875c-1.2923-.6996-4.375-.78125-4.375-.78125s.85683-1.5837 1.5-2.0625c.9396-.69932 3.1875-1.5625 3.1875-1.5625s-2.1219-1.618-3.4375-2.125c-.79746-.3081-2.4443.0183-3.8438-.34375-1.3219-.3417-2.1875-1.8125-2.1875-1.8125.52413-3.3447-.31255-5.1352-1.5625-5.7188-.63171-.294-1.8693-.282-2.6562 0-1.0975.3933-1.7877 1.3107-2.8438 2.625 0 0-6.8784-.6005-10.938-.3125-2.903.2052-7.1291 2.5128-9.875 1.3438-2.002-.8526-2.7861-4.329-4.4062-6-1.3831-1.4265-4.4375-4.5625-4.4375-4.5625 9.096.2847 23.554 2.6691 34.094-1.5 5.9946-2.3712 13.011-6.204 13.375-14.656.35385-8.2272-3.4748-15.775-15.094-16-6.6338-.1293-10.603.22414-19.469 2.6562-5.0164 1.3761-13.537 4.2118-20.156 5.7188-6.6777 1.5201-14.477 4.0549-21.156 5.3125-6.4806 1.2204-11.84 1.2346-18.406-.6875-2.2081-.6462-4.7-1.9248-5.8125-4.3438-.49581-1.0782-.56514-2.6928 0-3.7188 1.6266-2.9529 5.235-3.3175 8.0938-4 1.3243-.3165 4.4482 2.8535 6.25 3.6875 2.9876 1.3833 4.7428 1.4208 7.9375 1.4688 1.9175.0282 4.7759-.59115 6.6562-1.9688 2.5455-1.8651 5.2278-3.4686 7.625-2.25 1.1116.56491.5625 4.5938.5625 4.5938 3.7003-2.0103 5.2237-4.9854 2.2812-9.1875 0 0 5.3521 1.9948 8.25 2.3125 4.6018.5046 9.4924-.0391 13.719-2.3125 5.2966-2.8491 7.7807-7.0458 8.25-13.531 0 0-2.2101 2.8782-3 3.9062-1.6945 2.2062-6.7603 3.5466-9.2188 3.9062 0 0 .78526-3.297.15625-4.7188-1.5401-3.4803-3.875-3.5312-3.875-3.5312z"/>
		<path d="m132.67 87.96c2.2619 1.7004 4.746-.5274 5.2575-.7548 0 0-1.0828-.9129-1.8158-3.1071-.49266-1.4751-.66321-4.0815-.70866-5.3034-.1689-4.5381 1.3294-5.2422 1.3783-4.8987 0 0 2.4887-1.0305 3.5208-1.9911.97835-.9093 1.4302-2.4882 1.7001-3.9426.4047-2.1813-.30687-5.3865-.30687-5.3865-3.6161-.252-4.5355.3258-5.3826 1.6632 0 0-.075-2.229-.57732-4.2648-.2505-1.0149-.8289-2.5257-1.4218-3.5037-.60936-1.0053-1.23-1.4643-1.23-1.4643-.021 1.1577-.88362 2.2155-1.324 3.0231 0 0-.36693-4.4337-1.2872-6.024-.7098-1.2264-2.669-2.8599-2.6546-2.8548.015.003-2.2264.156-3.3714.7263-1.4844.741-3.7704 4.2375-3.7704 4.2375-.012-.9672-.2649-2.4189.2325-3.4089 0 0-.72747 0-1.6891.4332-.93558.438-2.0966 1.3344-2.76 2.0265-1.3311 1.3881-2.3881 3.2175-2.3881 3.2175-.0597-1.7523-.55356-2.7612-3.7934-4.9047 0 0-2.0285 2.2374-2.6602 4.3386-.42126 1.4007-.74328 3.0255-.3255 4.4277.44118 1.4811 2.0784 3.9693 2.0784 3.9693.1941-.258 1.1428 1.3107-1.0231 5.0244-.58305.9996-1.8889 3.0846-2.9617 4.0065-1.5957 1.3716-2.9152 1.4361-2.9152 1.4361.80562 2.532 1.0253 3.5682 4.0931 4.0578-6.9915 6.0624-7.7851 15.734-2.4172 23.973.34986-.9894 1.5484-3.2358 2.2565-4.0983-.0753-.072.0903 4.761 2.0858 7.2216.64755.7986.96258 5.2416 1.8982 6.639.8535 1.275 2.0525 2.6613 2.0525 2.6613s.93041-3.5235 2.2949-4.0728c1.3741-.5532 3.9405-1.4397 4.787-1.7625 1.7038-.6492 4.7385-5.0358 4.7385-5.0358l-.53313 5.3643c9.1984-3.9399 11.298-11.486 8.9431-21.667z"/>
	</g>
</svg>
