<?xml version="1.0" encoding="UTF-8" standalone="no"?>
<!-- Created with Inkscape (http://www.inkscape.org/) -->

<svg
   xmlns:dc="http://purl.org/dc/elements/1.1/"
   xmlns:cc="http://creativecommons.org/ns#"
   xmlns:rdf="http://www.w3.org/1999/02/22-rdf-syntax-ns#"
   xmlns:svg="http://www.w3.org/2000/svg"
   xmlns="http://www.w3.org/2000/svg"
   xmlns:sodipodi="http://sodipodi.sourceforge.net/DTD/sodipodi-0.dtd"
   xmlns:inkscape="http://www.inkscape.org/namespaces/inkscape"
   version="1.1"
   width="318.89764"
   height="318.89764"
   id="svg3096"
   inkscape:version="0.48.5 r10040"
   sodipodi:docname="avatar.svg">
  <sodipodi:namedview
     pagecolor="#ffffff"
     bordercolor="#666666"
     borderopacity="1"
     objecttolerance="10"
     gridtolerance="10"
     guidetolerance="10"
     inkscape:pageopacity="0"
     inkscape:pageshadow="2"
     inkscape:window-width="1366"
     inkscape:window-height="695"
     id="namedview50"
     showgrid="false"
     inkscape:zoom="2.9601975"
     inkscape:cx="222.3279"
     inkscape:cy="210.15419"
     inkscape:window-x="0"
     inkscape:window-y="25"
     inkscape:window-maximized="1"
     inkscape:current-layer="svg3096" />
  <defs
     id="defs3098" />
  <metadata
     id="metadata3101">
    <rdf:RDF>
      <cc:Work
         rdf:about="">
        <dc:format>image/svg+xml</dc:format>
        <dc:type
           rdf:resource="http://purl.org/dc/dcmitype/StillImage" />
        <dc:title />
      </cc:Work>
    </rdf:RDF>
  </metadata>
  <g
     transform="translate(0,-733.46324)"
     id="layer1">
    <rect
       width="318.89764"
       height="318.89764"
       x="0"
       y="733.4632"
       id="rect3195"
       style="fill:#003380;fill-opacity:1;stroke:none" />
    <path
       d="m 53.149676,765.36264 0,148.8137 c 0,58.704 47.592604,106.29476 106.299174,106.29476 58.70655,0 106.29918,-47.59076 106.29918,-106.29476 V 765.35304 H 53.149676 z"
       id="path3506-1-5"
       style="fill:#002255;fill-rule:nonzero;stroke:#002255;stroke-miterlimit:4;display:inline" />
    <rect
       width="212.59831"
       height="127.55936"
       x="53.149612"
       y="765.35303"
       id="rect3529"
       style="fill:#003380;fill-rule:nonzero;stroke:#002255;stroke-miterlimit:4;display:inline" />
    <path
       d="m 53.149676,871.65238 0,8.5173 c 2.41845,0 4.345005,-1.8807 4.345005,-4.2387 0,-2.358 -1.926405,-4.2786 -4.345005,-4.2786 z m 42.519661,0 c -2.41854,0 -4.38483,1.9206 -4.38483,4.2786 0,2.358 1.96638,4.2387 4.38483,4.2387 2.41842,0 4.344963,-1.8807 4.344963,-4.2387 0,-2.358 -1.926363,-4.2786 -4.344963,-4.2786 z m 42.519613,0 c -2.41854,0 -4.3848,1.9206 -4.3848,4.2786 0,2.358 1.96635,4.2387 4.3848,4.2387 2.41845,0 4.34501,-1.8807 4.34501,-4.2387 0,-2.358 -1.92641,-4.2786 -4.34501,-4.2786 z m 42.51966,0 c -2.41857,0 -4.38483,1.9206 -4.38483,4.2786 0,2.358 1.96635,4.2387 4.38483,4.2387 2.41845,0 4.34496,-1.8807 4.34496,-4.2387 0,-2.358 -1.92636,-4.2786 -4.34496,-4.2786 z m 42.51964,0 c -2.41857,0 -4.38486,1.9206 -4.38486,4.2786 0,2.358 1.96638,4.2387 4.38486,4.2387 2.41844,0 4.34498,-1.8807 4.34498,-4.2387 0,-2.358 -1.92636,-4.2786 -4.34498,-4.2786 z m 42.51963,0 c -2.41857,0 -4.38483,1.9206 -4.38483,4.2786 0,2.358 1.96635,4.2387 4.38483,4.2387 l 0,-8.5173 z m -206.353089,7.9191 c -2.41857,0 -4.398165,1.9341 -4.398165,4.2918 0,2.3586 1.979565,4.2255 4.398165,4.2255 2.41854,0 4.38483,-1.8669 4.38483,-4.2255 0,-2.3577 -1.96623,-4.2918 -4.38483,-4.2918 z m 29.989636,0 c -2.41845,0 -4.34499,1.9341 -4.34499,4.2918 0,2.3586 1.92675,4.2255 4.34499,4.2255 2.41854,0 4.38483,-1.8669 4.38483,-4.2255 0,-2.3577 -1.96635,-4.2918 -4.38483,-4.2918 z m 12.529983,0 c -2.418543,0 -4.398123,1.9341 -4.398123,4.2918 0,2.3586 1.97952,4.2255 4.398123,4.2255 2.41854,0 4.38486,-1.8669 4.38486,-4.2255 0,-2.3577 -1.96626,-4.2918 -4.38486,-4.2918 z m 29.98963,0 c -2.41842,0 -4.34499,1.9341 -4.34499,4.2918 0,2.3586 1.92678,4.2255 4.34499,4.2255 2.41854,0 4.38483,-1.8669 4.38483,-4.2255 0,-2.3577 -1.96635,-4.2918 -4.38483,-4.2918 z m 12.53003,0 c -2.41857,0 -4.39814,1.9341 -4.39814,4.2918 0,2.3586 1.97954,4.2255 4.39814,4.2255 2.41854,0 4.38483,-1.8669 4.38483,-4.2255 0,-2.3577 -1.96626,-4.2918 -4.38483,-4.2918 z m 29.9896,0 c -2.41842,0 -4.34496,1.9341 -4.34496,4.2918 0,2.3586 1.92675,4.2255 4.34496,4.2255 2.41857,0 4.38486,-1.8669 4.38486,-4.2255 0,-2.3577 -1.96638,-4.2918 -4.38486,-4.2918 z m 12.53001,0 c -2.41854,0 -4.39815,1.9341 -4.39815,4.2918 0,2.3586 1.97955,4.2255 4.39815,4.2255 2.41854,0 4.38483,-1.8669 4.38483,-4.2255 0,-2.3577 -1.96623,-4.2918 -4.38483,-4.2918 z m 29.98963,0 c -2.41845,0 -4.34499,1.9341 -4.34499,4.2918 0,2.3586 1.92678,4.2255 4.34499,4.2255 2.41854,0 4.38483,-1.8669 4.38483,-4.2255 0,-2.3577 -1.96635,-4.2918 -4.38483,-4.2918 z m 12.53,0 c -2.41854,0 -4.39812,1.9341 -4.39812,4.2918 0,2.3586 1.97952,4.2255 4.39812,4.2255 2.41857,0 4.38486,-1.8669 4.38486,-4.2255 0,-2.3577 -1.96623,-4.2918 -4.38486,-4.2918 z m 29.98963,0 c -2.41842,0 -4.34496,1.9341 -4.34496,4.2918 0,2.3586 1.92678,4.2255 4.34496,4.2255 2.41857,0 4.38486,-1.8669 4.38486,-4.2255 0,-2.3577 -1.96635,-4.2918 -4.38486,-4.2918 z m -206.313264,2.3919 0,10.9491 0,21.25996 c 0,58.7049 47.592574,106.29866 106.299114,106.29866 58.70655,0 106.29909,-47.59376 106.29909,-106.29866 l 0,-21.25996 0,-10.9491 c -0.64818,3.8187 -1.7589,7.4622 -2.88336,10.9491 l -36.77947,0 c -1.11282,-3.4869 -2.20871,-7.1304 -2.8568,-10.9491 -0.64821,3.8187 -1.7589,7.4622 -2.88339,10.9491 l -36.77944,0 c -1.11285,-3.4869 -2.20872,-7.1304 -2.85681,-10.9491 -0.64818,3.8187 -1.7589,7.4622 -2.88336,10.9491 l -36.7795,0 c -1.11284,-3.4869 -2.20868,-7.1304 -2.8568,-10.9491 -0.64815,3.8187 -1.75887,7.4622 -2.88336,10.9491 l -36.779473,0 c -1.11282,-3.4869 -2.20866,-7.1304 -2.85678,-10.9491 -0.64818,3.8187 -1.7589,7.4622 -2.88336,10.9491 l -36.779491,0 c -1.11285,-3.4869 -2.20869,-7.1304 -2.85681,-10.9491 z"
       id="path3390-9-5"
       style="color:#000000;fill:#002255;stroke:none;display:inline;enable-background:accumulate" />
    <path
       d="m 159.44879,839.7627 c -2.41854,0 -4.38486,1.92032 -4.38486,4.27832 0,2.358 1.96638,4.2387 4.38486,4.2387 2.41842,0 4.34496,-1.8807 4.34496,-4.2387 0,-2.358 -1.92636,-4.27832 -4.34496,-4.27832 z m -6.28491,7.91912 c -2.41845,0 -4.34498,1.9338 -4.34498,4.2918 0,2.3583 1.92674,4.22546 4.34498,4.22546 2.41854,0 4.3848,-1.86716 4.3848,-4.22546 0,-2.358 -1.96635,-4.2918 -4.3848,-4.2918 z m 12.52998,0 c -2.41854,0 -4.39815,1.9338 -4.39815,4.2918 0,2.3583 1.97952,4.22546 4.39815,4.22546 2.41854,0 4.38485,-1.86716 4.38485,-4.22546 0,-2.358 -1.96625,-4.2918 -4.38485,-4.2918 z m -6.24507,2.3919 c -1.04499,6.15626 -3.28182,11.85536 -4.86318,17.18036 -1.25502,4.2261 -2.62419,5.9127 -4.17225,9.6867 2.36253,-1.0107 4.74498,-1.3095 6.40452,-5.6073 0.03,3.5622 1.73523,9.2277 2.63091,10.9488 0.89556,-1.7211 2.6013,-7.3866 2.63088,-10.9488 1.65975,4.2978 4.04205,4.5966 6.40455,5.6073 -1.54791,-3.7743 -2.9571,-5.4609 -4.21212,-9.6867 -1.58163,-5.325 -3.7785,-11.0241 -4.82331,-17.18036 z"
       id="path3390"
       style="color:#000000;fill:#002255;stroke:none;display:inline;enable-background:accumulate" />
    <path
       d="m 116.9291,839.7627 c -2.41854,0 -4.38485,1.92032 -4.38485,4.27832 0,2.358 1.96637,4.2387 4.38485,4.2387 2.41841,0 4.34498,-1.8807 4.34498,-4.2387 0,-2.358 -1.92639,-4.27832 -4.34498,-4.27832 z m -6.28493,7.91912 c -2.41845,0 -4.34499,1.9338 -4.34499,4.2918 0,2.3583 1.92678,4.22546 4.34499,4.22546 2.41856,0 4.38482,-1.86716 4.38482,-4.22546 0,-2.358 -1.96632,-4.2918 -4.38482,-4.2918 z m 12.52999,0 c -2.41854,0 -4.39812,1.9338 -4.39812,4.2918 0,2.3583 1.97952,4.22546 4.39812,4.22546 2.41857,0 4.38483,-1.86716 4.38483,-4.22546 0,-2.358 -1.96623,-4.2918 -4.38483,-4.2918 z m -6.24506,2.3919 c -1.04496,6.15626 -3.28182,11.85536 -4.8632,17.18036 -1.25502,4.2261 -2.62419,5.9127 -4.17222,9.6867 2.36253,-1.0101 4.74498,-1.3095 6.40451,-5.6073 0.03,3.5622 1.73523,9.2277 2.63091,10.9488 0.89555,-1.7211 2.60129,-7.3866 2.6309,-10.9488 1.65975,4.2978 4.04205,4.5966 6.40452,5.6073 -1.54791,-3.7743 -2.9571,-5.4609 -4.21212,-9.6867 -1.58163,-5.325 -3.77847,-11.0241 -4.8233,-17.18036 z"
       id="path3390-1"
       style="color:#000000;fill:#002255;stroke:none;display:inline;enable-background:accumulate" />
    <path
       d="m 74.409461,839.7627 c -2.41854,0 -4.38486,1.92032 -4.38486,4.27832 0,2.358 1.96638,4.2387 4.38486,4.2387 2.41842,0 4.34496,-1.8807 4.34496,-4.2387 0,-2.358 -1.92636,-4.27832 -4.34496,-4.27832 z m -6.28494,7.91912 c -2.41842,0 -4.34496,1.9338 -4.34496,4.2918 0,2.3583 1.92675,4.22546 4.34496,4.22546 2.41857,0 4.38483,-1.86716 4.38483,-4.22546 0,-2.358 -1.96635,-4.2918 -4.38483,-4.2918 z m 12.53001,0 c -2.41857,0 -4.39815,1.9338 -4.39815,4.2918 0,2.3583 1.97952,4.22546 4.39815,4.22546 2.418541,0 4.384846,-1.86716 4.384846,-4.22546 0,-2.358 -1.966245,-4.2918 -4.384846,-4.2918 z m -6.24507,2.3919 c -1.04496,6.15626 -3.28182,11.85536 -4.86318,17.18036 -1.25502,4.2261 -2.62419,5.9127 -4.17225,9.6867 2.36253,-1.0101 4.74498,-1.3095 6.40452,-5.6073 0.03,3.5622 1.73523,9.2277 2.63091,10.9488 0.89556,-1.7211 2.6013,-7.3866 2.63088,-10.9488 1.65975,4.2978 4.04205,4.5966 6.404521,5.6073 -1.54791,-3.7743 -2.957071,-5.4609 -4.212091,-9.6867 -1.58166,-5.325 -3.77847,-11.0241 -4.82331,-17.18036 z"
       id="path3390-7"
       style="color:#000000;fill:#002255;stroke:none;display:inline;enable-background:accumulate" />
    <path
       d="m 201.96836,839.7627 c -2.41857,0 -4.38483,1.92032 -4.38483,4.27832 0,2.358 1.96638,4.2387 4.38483,4.2387 2.41845,0 4.34496,-1.8807 4.34496,-4.2387 0,-2.358 -1.92636,-4.27832 -4.34496,-4.27832 z m -6.28495,7.91912 c -2.41842,0 -4.34496,1.9338 -4.34496,4.2918 0,2.3583 1.92675,4.22546 4.34496,4.22546 2.41858,0 4.38487,-1.86716 4.38487,-4.22546 0,-2.358 -1.96638,-4.2918 -4.38487,-4.2918 z m 12.53002,0 c -2.41854,0 -4.39812,1.9338 -4.39812,4.2918 0,2.3583 1.97952,4.22546 4.39812,4.22546 2.41857,0 4.38483,-1.86716 4.38483,-4.22546 0,-2.358 -1.96623,-4.2918 -4.38483,-4.2918 z m -6.24507,2.3919 c -1.04496,6.15626 -3.28182,11.85536 -4.86318,17.18036 -1.255,4.2261 -2.6242,5.9127 -4.17226,9.6867 2.36253,-1.0101 4.74502,-1.3095 6.40453,-5.6073 0.03,3.5622 1.73523,9.2277 2.63091,10.9488 0.89556,-1.7211 2.60133,-7.3866 2.63091,-10.9488 1.65975,4.2978 4.04202,4.5966 6.40452,5.6073 -1.54794,-3.7743 -2.9571,-5.4609 -4.21212,-9.6867 -1.58163,-5.325 -3.77847,-11.0241 -4.82331,-17.18036 z"
       id="path3390-4"
       style="color:#000000;fill:#002255;stroke:none;display:inline;enable-background:accumulate" />
    <path
       d="m 244.48801,839.7627 c -2.41857,0 -4.38486,1.92032 -4.38486,4.27832 0,2.358 1.96638,4.2387 4.38486,4.2387 2.41839,0 4.34493,-1.8807 4.34493,-4.2387 0,-2.358 -1.92636,-4.27832 -4.34493,-4.27832 z m -6.28494,7.91912 c -2.41845,0 -4.34496,1.9338 -4.34496,4.2918 0,2.3583 1.92675,4.22546 4.34496,4.22546 2.41857,0 4.38483,-1.86716 4.38483,-4.22546 0,-2.358 -1.96635,-4.2918 -4.38483,-4.2918 z m 12.53001,0 c -2.41857,0 -4.39812,1.9338 -4.39812,4.2918 0,2.3583 1.97949,4.22546 4.39812,4.22546 2.41855,0 4.38484,-1.86716 4.38484,-4.22546 0,-2.358 -1.96623,-4.2918 -4.38484,-4.2918 z m -6.24507,2.3919 c -1.04499,6.15626 -3.28182,11.85536 -4.86318,17.18036 -1.25502,4.2261 -2.62422,5.9127 -4.17225,9.6867 2.36253,-1.0101 4.74498,-1.3095 6.40449,-5.6073 0.03,3.5622 1.73526,9.2277 2.63094,10.9488 0.89553,-1.7211 2.60127,-7.3866 2.63088,-10.9488 1.65972,4.2978 4.04205,4.5966 6.40456,5.6073 -1.54795,-3.7743 -2.95714,-5.4609 -4.21216,-9.6867 -1.58163,-5.325 -3.77847,-11.0241 -4.82328,-17.18036 z"
       id="path3390-0"
       style="color:#000000;fill:#002255;stroke:none;display:inline;enable-background:accumulate" />
    <path
       d="m 138.18895,807.87268 c -2.41854,0 -4.3848,1.9206 -4.3848,4.2786 0,2.358 1.96635,4.23872 4.3848,4.23872 2.41845,0 4.34501,-1.88072 4.34501,-4.23872 0,-2.358 -1.92641,-4.2786 -4.34501,-4.2786 z m -6.28491,7.9194 c -2.41842,0 -4.34499,1.93382 -4.34499,4.29182 0,2.358 1.92678,4.2255 4.34499,4.2255 2.41854,0 4.38483,-1.8675 4.38483,-4.2255 0,-2.358 -1.96635,-4.29182 -4.38483,-4.29182 z m 12.53003,0 c -2.41857,0 -4.39814,1.93382 -4.39814,4.29182 0,2.358 1.97954,4.2255 4.39814,4.2255 2.41854,0 4.38483,-1.8675 4.38483,-4.2255 0,-2.358 -1.96626,-4.29182 -4.38483,-4.29182 z m -6.24512,2.39162 c -1.04496,6.1566 -3.28182,11.8557 -4.86315,17.1807 -1.25502,4.2261 -2.62419,5.91272 -4.17225,9.68642 2.36253,-1.0101 4.74498,-1.3095 6.40449,-5.60732 0.03,3.56222 1.73526,9.22772 2.63091,10.94912 0.89556,-1.7211 2.60135,-7.3869 2.63096,-10.94912 1.65972,4.29812 4.04202,4.59722 6.40452,5.60732 -1.54794,-3.774 -2.95713,-5.46092 -4.21215,-9.68642 -1.58163,-5.325 -3.77849,-11.0241 -4.82333,-17.1807 z"
       id="path3390-9"
       style="color:#000000;fill:#002255;stroke:none;display:inline;enable-background:accumulate" />
    <path
       d="m 95.669277,807.87268 c -2.41857,0 -4.38483,1.9206 -4.38483,4.2786 0,2.358 1.96635,4.23872 4.38483,4.23872 2.41842,0 4.344993,-1.88072 4.344993,-4.23872 0,-2.358 -1.926393,-4.2786 -4.344993,-4.2786 z m -6.28494,7.9194 c -2.41842,0 -4.34496,1.93382 -4.34496,4.29182 0,2.3583 1.92675,4.2255 4.34496,4.2255 2.41857,0 4.38483,-1.8672 4.38483,-4.2255 0,-2.358 -1.96635,-4.29182 -4.38483,-4.29182 z m 12.530013,0 c -2.418543,0 -4.398123,1.93382 -4.398123,4.29182 0,2.3583 1.97952,4.2255 4.398123,4.2255 2.41857,0 4.38483,-1.8672 4.38483,-4.2255 0,-2.358 -1.96623,-4.29182 -4.38483,-4.29182 z m -6.245073,2.39162 c -1.04496,6.1566 -3.28182,11.8557 -4.86318,17.1807 -1.25502,4.2261 -2.62416,5.91272 -4.17225,9.68672 2.36253,-1.0104 4.74498,-1.3098 6.40455,-5.60732 0.03,3.56192 1.7352,9.22772 2.63088,10.94882 0.89553,-1.7211 2.6013,-7.3869 2.63091,-10.94882 1.65975,4.29782 4.042053,4.59692 6.404523,5.60732 -1.54794,-3.7743 -2.9571,-5.46122 -4.21209,-9.68672 -1.581663,-5.325 -3.778533,-11.0241 -4.823343,-17.1807 z"
       id="path3390-1-4"
       style="color:#000000;fill:#002255;stroke:none;display:inline;enable-background:accumulate" />
    <path
       d="m 53.149646,807.87268 0,8.51732 c 2.41842,0 4.344975,-1.88072 4.344975,-4.23872 0,-2.358 -1.926375,-4.2786 -4.344975,-4.2786 z m 6.245055,7.9194 c -2.41854,0 -4.398105,1.93382 -4.398105,4.29182 0,2.3583 1.979505,4.2255 4.398105,4.2255 2.41857,0 4.38486,-1.8672 4.38486,-4.2255 0,-2.358 -1.96626,-4.29182 -4.38486,-4.29182 z m -6.245055,2.39162 0,32.20892 c 0.89553,-1.7211 2.60127,-7.3869 2.63091,-10.94882 1.659735,4.29782 4.042035,4.59692 6.404505,5.60732 -1.54791,-3.7743 -2.9571,-5.46122 -4.21212,-9.68672 -1.581615,-5.325 -3.778485,-11.0241 -4.823295,-17.1807 z"
       id="path3390-7-8"
       style="color:#000000;fill:#002255;stroke:none;display:inline;enable-background:accumulate" />
    <path
       d="m 180.70855,807.87268 c -2.41857,0 -4.38483,1.9206 -4.38483,4.2786 0,2.358 1.96635,4.23872 4.38483,4.23872 2.41842,0 4.34496,-1.88072 4.34496,-4.23872 0,-2.358 -1.92636,-4.2786 -4.34496,-4.2786 z m -6.28494,7.9194 c -2.41842,0 -4.34496,1.93382 -4.34496,4.29182 0,2.3583 1.92675,4.2255 4.34496,4.2255 2.41857,0 4.38483,-1.8672 4.38483,-4.2255 0,-2.358 -1.96635,-4.29182 -4.38483,-4.29182 z m 12.52998,0 c -2.41854,0 -4.39809,1.93382 -4.39809,4.29182 0,2.3583 1.97952,4.2255 4.39809,4.2255 2.4186,0 4.38486,-1.8672 4.38486,-4.2255 0,-2.358 -1.96626,-4.29182 -4.38486,-4.29182 z m -6.24504,2.39162 c -1.04496,6.1566 -3.28182,11.8557 -4.86318,17.1807 -1.25502,4.2261 -2.62419,5.91272 -4.17225,9.68672 2.36253,-1.0104 4.74501,-1.3098 6.40452,-5.60732 0.03,3.56192 1.73523,9.22772 2.63091,10.94882 0.89553,-1.7211 2.6013,-7.3869 2.63091,-10.94882 1.65972,4.29782 4.04202,4.59692 6.40449,5.60732 -1.54791,-3.7743 -2.95707,-5.46122 -4.21209,-9.68672 -1.58163,-5.325 -3.77847,-11.0241 -4.82331,-17.1807 z"
       id="path3390-4-8"
       style="color:#000000;fill:#002255;stroke:none;display:inline;enable-background:accumulate" />
    <path
       d="m 223.22816,807.87268 c -2.41854,0 -4.38483,1.9206 -4.38483,4.2786 0,2.358 1.96635,4.23872 4.38483,4.23872 2.41847,0 4.34501,-1.88072 4.34501,-4.23872 0,-2.358 -1.92639,-4.2786 -4.34501,-4.2786 z m -6.28494,7.9194 c -2.41839,0 -4.34496,1.93382 -4.34496,4.29182 0,2.3583 1.92678,4.2255 4.34496,4.2255 2.41857,0 4.38486,-1.8672 4.38486,-4.2255 0,-2.358 -1.96638,-4.29182 -4.38486,-4.29182 z m 12.53003,0 c -2.41854,0 -4.39812,1.93382 -4.39812,4.29182 0,2.3583 1.97955,4.2255 4.39812,4.2255 2.41857,0 4.38486,-1.8672 4.38486,-4.2255 0,-2.358 -1.96623,-4.29182 -4.38486,-4.29182 z m -6.24509,2.39162 c -1.04496,6.1566 -3.28182,11.8557 -4.86315,17.1807 -1.25502,4.2261 -2.62419,5.91272 -4.17225,9.68672 2.36253,-1.0104 4.74498,-1.3098 6.40452,-5.60732 0.03,3.56192 1.7352,9.22772 2.63088,10.94882 0.89556,-1.7211 2.60132,-7.3869 2.63093,-10.94882 1.65975,4.29782 4.04205,4.59692 6.40452,5.60732 -1.54794,-3.7743 -2.9571,-5.46122 -4.21209,-9.68672 -1.58166,-5.325 -3.77852,-11.0241 -4.82336,-17.1807 z"
       id="path3390-0-2"
       style="color:#000000;fill:#002255;stroke:none;display:inline;enable-background:accumulate" />
    <path
       d="m 265.74779,807.87268 c -2.41854,0 -4.3848,1.9206 -4.3848,4.2786 0,2.358 1.96635,4.23872 4.3848,4.23872 l 0,-8.51732 z m -6.28491,7.9194 c -2.41842,0 -4.34496,1.93382 -4.34496,4.29182 0,2.3583 1.92675,4.2255 4.34496,4.2255 2.41857,0 4.38483,-1.8672 4.38483,-4.2255 0,-2.358 -1.96635,-4.29182 -4.38483,-4.29182 z m 6.28491,2.39162 c -1.04493,6.1566 -3.28182,11.8557 -4.86315,17.1807 -1.25499,4.2261 -2.62419,5.91272 -4.17225,9.68672 2.36253,-1.0104 4.74501,-1.3098 6.40452,-5.60732 0.03,3.56192 1.73523,9.22772 2.63088,10.94882 l 0,-32.20892 z"
       id="path3390-7-8-4"
       style="color:#000000;fill:#002255;stroke:none;display:inline;enable-background:accumulate" />
    <path
       d="m 159.44879,775.98297 c -2.41854,0 -4.38486,1.9203 -4.38486,4.2786 0,2.358 1.96638,4.2387 4.38486,4.2387 2.41842,0 4.34496,-1.8807 4.34496,-4.2387 0,-2.3583 -1.92636,-4.2786 -4.34496,-4.2786 z m -6.28491,7.9191 c -2.41845,0 -4.34498,1.9338 -4.34498,4.2921 0,2.358 1.92674,4.22521 4.34498,4.22521 2.41854,0 4.3848,-1.86721 4.3848,-4.22521 0,-2.3583 -1.96635,-4.2921 -4.3848,-4.2921 z m 12.52998,0 c -2.41854,0 -4.39815,1.9338 -4.39815,4.2921 0,2.358 1.97952,4.22521 4.39815,4.22521 2.41854,0 4.38485,-1.86721 4.38485,-4.22521 0,-2.3583 -1.96625,-4.2921 -4.38485,-4.2921 z m -6.24507,2.3919 c -1.04499,6.15661 -3.28182,11.85541 -4.86318,17.18071 -1.25502,4.2258 -2.62419,5.9124 -4.17225,9.6864 2.36253,-1.0104 4.74498,-1.3095 6.40452,-5.6073 0.03,3.5622 1.73523,9.22772 2.63091,10.94882 0.89556,-1.7208 2.6013,-7.38662 2.63088,-10.94882 1.65975,4.2978 4.04205,4.5969 6.40455,5.6073 -1.54791,-3.7743 -2.9571,-5.4609 -4.21212,-9.6864 -1.58163,-5.3253 -3.7785,-11.0241 -4.82331,-17.18071 z"
       id="path3390-5"
       style="color:#000000;fill:#002255;stroke:none;display:inline;enable-background:accumulate" />
    <path
       d="m 116.9291,775.98297 c -2.41854,0 -4.38485,1.9203 -4.38485,4.2786 0,2.358 1.96637,4.2387 4.38485,4.2387 2.41841,0 4.34498,-1.8807 4.34498,-4.2387 0,-2.3583 -1.92639,-4.2786 -4.34498,-4.2786 z m -6.28493,7.9191 c -2.41845,0 -4.34499,1.9341 -4.34499,4.2921 0,2.358 1.92678,4.22521 4.34499,4.22521 2.41856,0 4.38482,-1.86721 4.38482,-4.22521 0,-2.358 -1.96632,-4.2921 -4.38482,-4.2921 z m 12.52999,0 c -2.41854,0 -4.39812,1.9341 -4.39812,4.2921 0,2.358 1.97952,4.22521 4.39812,4.22521 2.41857,0 4.38483,-1.86721 4.38483,-4.22521 0,-2.358 -1.96623,-4.2921 -4.38483,-4.2921 z m -6.24506,2.3919 c -1.04496,6.15661 -3.28182,11.85541 -4.8632,17.18071 -1.25502,4.2258 -2.62419,5.9127 -4.17222,9.6864 2.36253,-1.0104 4.74498,-1.3095 6.40451,-5.6073 0.03,3.5622 1.73523,9.22772 2.63091,10.94912 0.89555,-1.7211 2.60129,-7.38692 2.6309,-10.94912 1.65975,4.2978 4.04205,4.5969 6.40452,5.6073 -1.54791,-3.7743 -2.9571,-5.4609 -4.21212,-9.6864 -1.58163,-5.3253 -3.77847,-11.0241 -4.8233,-17.18071 z"
       id="path3390-1-1"
       style="color:#000000;fill:#002255;stroke:none;display:inline;enable-background:accumulate" />
    <path
       d="m 74.409461,775.98297 c -2.41854,0 -4.38486,1.9203 -4.38486,4.2786 0,2.358 1.96638,4.2387 4.38486,4.2387 2.41842,0 4.34496,-1.8807 4.34496,-4.2387 0,-2.3583 -1.92636,-4.2786 -4.34496,-4.2786 z m -6.28494,7.9191 c -2.41842,0 -4.34496,1.9341 -4.34496,4.2921 0,2.358 1.92675,4.22521 4.34496,4.22521 2.41857,0 4.38483,-1.86721 4.38483,-4.22521 0,-2.358 -1.96635,-4.2921 -4.38483,-4.2921 z m 12.53001,0 c -2.41857,0 -4.39815,1.9341 -4.39815,4.2921 0,2.358 1.97952,4.22521 4.39815,4.22521 2.418541,0 4.384846,-1.86721 4.384846,-4.22521 0,-2.358 -1.966245,-4.2921 -4.384846,-4.2921 z m -6.24507,2.3919 c -1.04496,6.15661 -3.28182,11.85541 -4.86318,17.18071 -1.25502,4.2258 -2.62419,5.9127 -4.17225,9.6864 2.36253,-1.0104 4.74498,-1.3095 6.40452,-5.6073 0.03,3.5622 1.73523,9.22772 2.63091,10.94912 0.89556,-1.7211 2.6013,-7.38692 2.63088,-10.94912 1.65975,4.2978 4.04205,4.5969 6.404521,5.6073 -1.54791,-3.7743 -2.957071,-5.4609 -4.212091,-9.6864 -1.58166,-5.3253 -3.77847,-11.0241 -4.82331,-17.18071 z"
       id="path3390-7-7"
       style="color:#000000;fill:#002255;stroke:none;display:inline;enable-background:accumulate" />
    <path
       d="m 201.96836,775.98297 c -2.41857,0 -4.38483,1.9203 -4.38483,4.2786 0,2.358 1.96638,4.2387 4.38483,4.2387 2.41845,0 4.34496,-1.8807 4.34496,-4.2387 0,-2.3583 -1.92636,-4.2786 -4.34496,-4.2786 z m -6.28495,7.9191 c -2.41842,0 -4.34496,1.9341 -4.34496,4.2921 0,2.358 1.92675,4.22521 4.34496,4.22521 2.41858,0 4.38487,-1.86721 4.38487,-4.22521 0,-2.358 -1.96638,-4.2921 -4.38487,-4.2921 z m 12.53002,0 c -2.41854,0 -4.39812,1.9341 -4.39812,4.2921 0,2.358 1.97952,4.22521 4.39812,4.22521 2.41857,0 4.38483,-1.86721 4.38483,-4.22521 0,-2.358 -1.96623,-4.2921 -4.38483,-4.2921 z m -6.24507,2.3919 c -1.04496,6.15661 -3.28182,11.85541 -4.86318,17.18071 -1.255,4.2258 -2.6242,5.9127 -4.17226,9.6864 2.36253,-1.0104 4.74502,-1.3095 6.40453,-5.6073 0.03,3.5622 1.73523,9.22772 2.63091,10.94912 0.89556,-1.7211 2.60133,-7.38692 2.63091,-10.94912 1.65975,4.2978 4.04202,4.5969 6.40452,5.6073 -1.54794,-3.7743 -2.9571,-5.4609 -4.21212,-9.6864 -1.58163,-5.3253 -3.77847,-11.0241 -4.82331,-17.18071 z"
       id="path3390-4-1"
       style="color:#000000;fill:#002255;stroke:none;display:inline;enable-background:accumulate" />
    <path
       d="m 244.48801,775.98297 c -2.41857,0 -4.38486,1.9203 -4.38486,4.2786 0,2.358 1.96638,4.2387 4.38486,4.2387 2.41839,0 4.34493,-1.8807 4.34493,-4.2387 0,-2.3583 -1.92636,-4.2786 -4.34493,-4.2786 z m -6.28494,7.9191 c -2.41845,0 -4.34496,1.9341 -4.34496,4.2921 0,2.358 1.92675,4.22521 4.34496,4.22521 2.41857,0 4.38483,-1.86721 4.38483,-4.22521 0,-2.358 -1.96635,-4.2921 -4.38483,-4.2921 z m 12.53001,0 c -2.41857,0 -4.39812,1.9341 -4.39812,4.2921 0,2.358 1.97949,4.22521 4.39812,4.22521 2.41855,0 4.38484,-1.86721 4.38484,-4.22521 0,-2.358 -1.96623,-4.2921 -4.38484,-4.2921 z m -6.24507,2.3919 c -1.04499,6.15661 -3.28182,11.85541 -4.86318,17.18071 -1.25502,4.2258 -2.62422,5.9127 -4.17225,9.6864 2.36253,-1.0104 4.74498,-1.3095 6.40449,-5.6073 0.03,3.5622 1.73526,9.22772 2.63094,10.94912 0.89553,-1.7211 2.60127,-7.38692 2.63088,-10.94912 1.65972,4.2978 4.04205,4.5969 6.40456,5.6073 -1.54795,-3.7743 -2.95714,-5.4609 -4.21216,-9.6864 -1.58163,-5.3253 -3.77847,-11.0241 -4.82328,-17.18071 z"
       id="path3390-0-1"
       style="color:#000000;fill:#002255;stroke:none;display:inline;enable-background:accumulate" />
    <path
       d="m 135.30556,765.35304 c -0.68835,2.1342 -1.37937,4.20992 -1.97985,6.23162 -1.25499,4.22611 -2.62416,5.91271 -4.17222,9.68671 2.36253,-1.0104 4.74498,-1.3098 6.40452,-5.6073 0.03,3.5619 1.73523,9.2277 2.63091,10.9488 0.89553,-1.7208 2.60132,-7.3866 2.6309,-10.9488 1.65975,4.2978 4.04205,4.5969 6.40452,5.6073 -1.54794,-3.7743 -2.9571,-5.4609 -4.21209,-9.68671 -0.60057,-2.0217 -1.28532,-4.09742 -1.96653,-6.23162 l -5.74016,0 z"
       id="path3390-9-2"
       style="color:#000000;fill:#002255;stroke:none;display:inline;enable-background:accumulate" />
    <path
       d="m 92.785917,765.35304 c -0.68832,2.1342 -1.37937,4.20992 -1.97982,6.23162 -1.25502,4.22611 -2.62416,5.91271 -4.17225,9.68671 2.36253,-1.0104 4.74498,-1.3098 6.40455,-5.6073 0.03,3.5619 1.7352,9.2277 2.63088,10.9488 0.89553,-1.7208 2.6013,-7.3866 2.63091,-10.9488 1.65975,4.2978 4.042053,4.5969 6.404523,5.6073 -1.54794,-3.7743 -2.9571,-5.4609 -4.21209,-9.68671 -0.600573,-2.0217 -1.285353,-4.09742 -1.966533,-6.23162 l -5.74017,0 z"
       id="path3390-1-4-3"
       style="color:#000000;fill:#002255;stroke:none;display:inline;enable-background:accumulate" />
    <path
       d="m 53.149646,765.35304 0,21.25983 c 0.89553,-1.7208 2.60127,-7.3866 2.63091,-10.9488 1.659735,4.2978 4.042035,4.5969 6.404505,5.6073 -1.54791,-3.7743 -2.9571,-5.4609 -4.21212,-9.68671 -0.60054,-2.0217 -1.285305,-4.09742 -1.966545,-6.23162 l -2.85675,0 z"
       id="path3390-7-8-2"
       style="color:#000000;fill:#002255;stroke:none;display:inline;enable-background:accumulate" />
    <path
       d="m 177.82519,765.35304 c -0.68835,2.1342 -1.37937,4.20992 -1.97982,6.23162 -1.25502,4.22611 -2.62419,5.91271 -4.17225,9.68671 2.36253,-1.0104 4.74501,-1.3098 6.40452,-5.6073 0.03,3.5619 1.73523,9.2277 2.63091,10.9488 0.89553,-1.7208 2.6013,-7.3866 2.63091,-10.9488 1.65972,4.2978 4.04202,4.5969 6.40449,5.6073 -1.54791,-3.7743 -2.95707,-5.4609 -4.21209,-9.68671 -0.60057,-2.0217 -1.28535,-4.09742 -1.96653,-6.23162 l -5.74014,0 z"
       id="path3390-4-8-2"
       style="color:#000000;fill:#002255;stroke:none;display:inline;enable-background:accumulate" />
    <path
       d="m 220.3448,765.35304 c -0.68832,2.1342 -1.37937,4.20992 -1.97979,6.23162 -1.25502,4.22611 -2.62419,5.91271 -4.17225,9.68671 2.36253,-1.0104 4.74498,-1.3098 6.40452,-5.6073 0.03,3.5619 1.7352,9.2277 2.63088,10.9488 0.89556,-1.7208 2.60132,-7.3866 2.63093,-10.9488 1.65975,4.2978 4.04205,4.5969 6.40452,5.6073 -1.54794,-3.7743 -2.9571,-5.4609 -4.21209,-9.68671 -0.60057,-2.0217 -1.28532,-4.09742 -1.96653,-6.23162 l -5.74019,0 z"
       id="path3390-0-2-16"
       style="color:#000000;fill:#002255;stroke:none;display:inline;enable-background:accumulate" />
    <path
       d="m 262.86446,765.35304 c -0.68832,2.1342 -1.37937,4.20992 -1.97982,6.23162 -1.25499,4.22611 -2.62419,5.91271 -4.17225,9.68671 2.36253,-1.0104 4.74501,-1.3098 6.40452,-5.6073 0.03,3.5619 1.73523,9.2277 2.63088,10.9488 l 0,-21.25983 -2.88333,0 z"
       id="path3390-7-8-4-8"
       style="color:#000000;fill:#002255;stroke:none;display:inline;enable-background:accumulate" />
    <path
       d="m 151.13489,1001.8249 a 8.3157466,8.3169598 0 0 1 -8.31608,8.3169 9.6022359,9.6036366 0 0 0 16.63181,0 9.6022359,9.6036366 0 0 0 16.63184,0 8.3157466,8.3169598 0 0 1 -8.31611,-8.3169 v -36.80906 h 36.81726 a 8.3157466,8.3169598 0 0 1 8.31573,8.3169 9.6022359,9.6036366 0 0 0 0,-16.6338 9.6022359,9.6036366 0 0 0 0,-16.6344 8.3157466,8.3169598 0 0 1 -8.31573,8.3169 h -36.82392 v -36.82231 a 8.3157466,8.3169598 0 0 1 8.31611,-8.3172 9.6022359,9.6036366 0 0 0 -16.63184,0 9.6022359,9.6036366 0 0 0 -16.63181,0 8.3157466,8.3169598 0 0 1 8.31605,8.3172 v 36.82231 h -36.81387 a 8.3157466,8.3169598 0 0 1 -8.31608,-8.3169 9.6022359,9.6036366 0 0 0 0,16.6344 9.6022359,9.6036366 0 0 0 0,16.6338 8.3157466,8.3169598 0 0 1 8.31608,-8.3169 h 36.8172 z"
       id="path6"
       style="fill:#003380;stroke:none;display:inline" />
    <path
       style="fill:#002255;stroke:#003380;stroke-miterlimit:4;display:inline"
       d="M 80.125 47.59375 C 81.139818 49.270402 81.601596 50.395934 81.71875 51.75 C 80.582941 52.483315 79.15625 54 79.15625 54 C 77.59325 48.9969 75.58285 48.64265 73.28125 49.90625 C 73.187815 49.957516 73.093009 50.036534 73 50.09375 C 72.077223 49.466802 70.806088 48.499725 67.71875 49.40625 C 69.28371 50.45285 70.062266 51.282756 70.59375 52.625 C 69.717429 54.27158 69.48896 56.470356 70.78125 59.09375 C 68.102768 58.589227 66.672023 59.801185 65.96875 61.4375 C 64.964381 61.40759 63.578049 61.595386 61.40625 63.78125 C 63.483905 63.878592 64.450205 64.298744 65.53125 65.6875 C 65.843656 67.227333 66.817376 69.336492 68.40625 70.1875 C 70.291 71.1973 73.11455 69.8992 74.46875 73.5625 L 75.59375 76.625 C 74.08454 78.1334 72.08908 78.3615 70.09375 78.5625 C 70.09375 78.5625 73.26976 82.16488 75.34375 83.25 C 76.84609 84.0345 80.40625 83.875 80.40625 83.875 C 79.16923 85.9462 77.32997 86.43425 75.40625 86.65625 C 75.40625 86.65625 77.91681 89.6046 79.5 90.375 C 81.08598 91.1469 84.59375 91.125 84.59375 91.125 C 83.29211 93.2769 81.496301 93.2037 79.84375 93.75 C 79.84375 93.75 82.75894 96.74755 84.53125 97.65625 C 86.567155 98.70055 90.125 98.96875 90.125 98.96875 C 88.32953 100.90345 86.94793 101.2605 85.09375 101.625 C 85.09375 101.625 87.873 104.59645 89.8125 105.15625 C 91.66902 105.69205 95.71875 104.8125 95.71875 104.8125 C 95.71875 104.8125 97.40532 109.1937 99 110.4375 C 100.46661 111.5802 104.125 111.625 104.125 111.625 L 113.53125 111.375 L 112.75 92 L 104.125 92 L 103.90625 92.15625 C 103.90625 92.15625 100.03658 86.3644 97.90625 83.6875 C 93.9023 78.65678 85.1875 69.46875 85.1875 69.46875 C 85.1875 69.46875 83.37466 64.8443 83.875 62.1875 C 84.31696 59.8409 85.667 58.7294 86.28125 57.125 C 86.66981 56.111 86.57535 54.40585 86.34375 53.59375 C 86.147133 52.904072 85.809122 52.383478 85.375 52 C 84.408175 51.1918 84.247331 48.76495 80.125 47.59375 z "
       transform="translate(0,733.46324)"
       id="path13429-8-0-0-7-73-5-7-9-5-9-8" />
    <path
       style="fill:#002255;stroke:#003380;stroke-miterlimit:4;display:inline"
       d="M 180.3125 84.625 L 164.21875 89.875 C 167.14957 91.6663 173.72369 97.8033 173.1875 100.125 C 172.9868 100.9935 171.60518 101.80595 170.9375 102.96875 C 170.4458 103.82495 170.7978 105.20935 171.28125 106.09375 C 171.95754 107.33097 173.57415 107.61755 174.09375 108.78125 C 174.56133 109.82885 174.77675 110.7633 174.21875 111.75 C 173.11748 113.6979 169.42121 114.5128 167.625 115.5625 C 164.35125 117.4759 158.8125 121.65625 158.8125 121.65625 C 157.0887 121.95625 155.4333 121.14925 153.84375 120.53125 C 152.32317 119.93995 150.45663 117.26895 148.84375 117.28125 C 147.90777 117.28125 147.12691 117.68064 146.46875 118.3125 C 146.32916 118.19018 146.16675 118.07146 146 117.96875 C 144.93548 118.51775 143.38824 117.2358 140.21875 120.9375 C 142.84371 120.8058 143.68471 121.35229 145.375 123.65625 C 145.39542 123.65284 145.41742 123.65996 145.4375 123.65625 C 145.59822 124.13097 145.78217 124.51664 145.96875 124.6875 L 148.90625 127.375 C 148.90625 127.375 147.09476 130.13596 146.9375 131.71875 C 146.04712 132.4839 144.5006 132.9093 143.125 137.40625 C 145.42801 135.72355 146.37058 135.6973 148.65625 136.75 C 148.75588 136.66138 148.82021 136.55952 148.90625 136.46875 C 149.36134 137.03921 149.78695 137.36982 150.78125 137.5625 C 151.69643 137.7395 153.875 137.1875 153.875 137.1875 C 153.875 137.1875 153.80861 139.4623 154.34375 140.5 C 154.51021 140.82297 154.70213 141.13626 154.90625 141.4375 C 154.4013 142.66163 153.42502 144.221 153.96875 148.71875 C 155.2796 145.68605 156.10547 144.9962 158.46875 144.3125 C 158.54022 144.10773 158.57819 143.93959 158.625 143.75 C 158.69888 143.74544 158.76911 143.76051 158.84375 143.75 C 160.31228 143.543 160.78637 143.2687 161.5625 141.8125 C 162.17792 140.6578 162.0632 137.68495 163.0625 136.46875 L 167.125 131.53125 C 168.87963 132.94605 168.84319 135.04345 168.625 137.21875 C 168.625 137.21875 171.22399 135.04195 172 133.46875 C 172.8085 131.83015 173.125 127.96875 173.125 127.96875 C 174.77653 129.95325 175.32272 131.72285 174.96875 134.09375 C 174.96875 134.09375 177.61441 131.8719 178.46875 130.3125 C 179.43061 128.5572 180.28125 124.78125 180.28125 124.78125 C 181.49037 126.34845 181.74271 128.55545 181.28125 131.28125 C 181.28125 131.28125 184.23802 128.6342 185.03125 126.5 C 185.65834 124.8128 186.03125 121.875 186.03125 121.875 C 189.63701 122.2239 191.96627 120.13295 192.125 117.96875 C 192.248 116.29055 190.84084 114.00795 187.9375 113.34375 C 187.9375 113.34375 186.84319 111.2018 186.4375 109.625 C 186.1588 108.5411 186.1378 107.29517 186.4375 106.21875 C 187.03678 104.06535 188.44814 102.26615 189.875 100.71875 C 191.83778 98.59025 196.09375 95.90625 196.09375 95.90625 L 194.84375 87.5625 L 180.3125 84.625 z "
       transform="translate(0,733.46324)"
       id="path13429-0-9-6-3-4-8-4-0-1-8-2" />
    <path
       d="m 187.93213,827.7705 c 0,0 -0.2775,6.9324 -2.45109,8.7072 -0.936,0.7644 -2.24691,1.0812 -3.26811,0.5442 -0.98931,-0.5199 -1.68051,-1.9329 -2.04258,-3.2652 -0.2319,-0.8529 -0.61278,-2.9931 -0.61278,-2.9931 0,0 -3.3228,-2.0253 -5.10651,-2.1771 -2.62542,-0.222 -7.76195,1.905 -7.76195,1.905 0.8769,-3.6318 3.2363,-6.6051 5.71916,-9.5238 l 8.57883,-0.8163 6.9447,7.6194 z"
       id="path5636-3-2-19-6-29-2-2-2-2"
       style="fill:#002255;stroke:#003380;stroke-miterlimit:4;display:inline" />
    <path
       style="fill:#002255;stroke:#003380;stroke-miterlimit:4;display:inline"
       d="M 207.375 39.96875 C 209.20563 42.85745 207.85259 44.14555 207.03125 45.34375 C 206.05529 46.76725 202.72457 47.57075 199.625 47.09375 C 194.85529 46.35965 190.22516 44.3915 178.8125 45.6875 C 171.69431 46.4957 159.46875 50.5 159.46875 50.5 C 154.85418 51.8977 150.72211 54.56095 148.34375 58.09375 C 146.63777 60.62786 145.90333 63.8898 146.40625 66.1875 C 147.29239 70.2351 148.84434 71.93615 152.28125 73.71875 C 158.88581 77.14415 166.69352 77.99375 177.4375 76.34375 C 183.69382 75.38285 192.54753 73.05225 198.34375 71.53125 C 206.57137 69.37215 214.13573 67.67415 218.09375 66.46875 C 218.09375 66.46875 218.66242 71.1014 219.71875 72.875 C 221.07976 75.1601 224.5 76.40625 224.5 76.40625 C 224.13281 74.24205 223.40785 73.34075 223.46875 71.28125 C 223.51096 69.85505 224.10331 67.91305 225.09375 66.71875 C 225.09375 66.71875 226.03281 71.45655 227.15625 73.03125 C 228.82782 75.37485 232.3125 75.6875 232.3125 75.6875 C 230.9046 73.3544 231.01425 72.38095 230.90625 70.84375 C 230.78097 69.05965 231.31907 67.6906 232.0625 66.4375 C 232.0625 66.4375 232.94998 70.98535 234.53125 72.53125 C 236.03359 74.00125 239.875 73.78125 239.875 73.78125 C 239.875 73.78125 238.57873 72.837 237.4375 70.875 C 236.77408 69.7341 236.6453 68.87255 236.75 67.90625 C 236.94383 66.12395 238.91565 64.65525 240.46875 64.21875 C 243.41337 63.39075 244.97959 64.31035 247.1875 66.71875 C 248.86096 68.54365 249.43375 71.78625 248.3125 74.15625 C 243.99208 83.28977 230.41866 82.60638 222.8125 83.1875 C 217.48528 83.5943 213.82818 82.88372 208.5 82.5 C 202.16301 82.044 196.36699 79.81115 189.625 79.34375 C 185.14912 79.03355 180.64469 79.4757 176.1875 80.0625 C 167.3397 81.228 148.75 84.9375 148.75 84.9375 L 137.59375 85.96875 C 137.59375 85.96875 121.96081 82.73173 116 82.96875 C 111.85005 83.13345 113.93843 83.08982 109.03125 82.6875 L 108.78125 109.3125 C 108.78125 109.3125 100.62526 111.2361 97.75 112.5 C 92.34637 114.8754 84.15625 120.75 84.15625 120.75 C 84.15625 120.75 79.92883 120.9051 78.15625 119.25 C 76.59061 117.7884 76.34762 115.81575 75.40625 114.46875 C 74.81105 113.61765 73.48223 113.0155 72.78125 112.9375 C 72.232914 112.87633 71.751894 113.0373 71.3125 113.3125 C 71.269708 113.28324 71.232252 113.24656 71.1875 113.21875 C 70.12166 113.76295 68.55389 112.46865 65.375 116.15625 C 67.378446 116.0649 68.369758 116.38845 69.46875 117.5625 C 69.5275 118.92201 69.875 120.46875 69.875 120.46875 C 66.38522 120.20594 65.146122 121.90044 64.78125 124.15625 C 63.84794 124.73055 62.528884 125.55431 61.21875 129.1875 C 62.86789 128.15049 63.84836 127.8874 65.03125 128.21875 C 65.834647 130.61576 67.907422 132.62652 71.21875 132.15625 C 70.435263 133.62072 70.092013 134.94575 70.03125 136.09375 C 70.030671 136.10468 70.031775 136.1141 70.03125 136.125 C 69.647009 137.52296 68.028172 138.45372 68.25 143.9375 C 69.491868 141.66074 70.297203 140.84918 71.8125 140.4375 C 72.075014 140.64383 72.343558 140.81392 72.625 140.9375 C 73.79578 141.4517 76.24583 141.4 77.75 139.75 C 79.28153 138.0697 79.491959 134.40625 82.78125 134.40625 L 85.5 134.40625 C 85.99983 136.70905 85.331955 139.0094 84.65625 141.3125 C 84.65625 141.3125 88.67779 139.26535 90.34375 137.40625 C 91.55035 136.05955 92.90625 132.0625 92.90625 132.0625 C 93.93804 134.2951 93.53577 136.5174 92.90625 138.75 C 92.90625 138.75 96.14632 137.193 97.375 135.75 C 98.60587 134.304 100.03125 130.375 100.03125 130.375 C 101.0964 132.7129 100.30725 134.6854 100.03125 136.75 C 100.03125 136.75 103.46509 134.75255 104.875 133.15625 C 106.49443 131.32295 108.15625 127.46875 108.15625 127.46875 C 108.85552 130.26655 108.55738 131.94255 108.0625 134.15625 C 108.0625 134.15625 111.40613 132.3016 112.625 130.375 C 113.79163 128.5312 114.8125 123.6875 114.8125 123.6875 C 114.8125 123.6875 118.78893 123.60405 120.375 122.34375 C 121.83339 121.18519 123.375 117.125 123.375 117.125 C 123.375 117.125 132.81337 116.60645 137.3125 115.15625 C 148.27428 111.62345 160.06191 94.48495 171.125 91.46875 C 174.17267 90.63775 175.55521 90.4397 178.46875 91.8125 C 188.01604 96.3113 195.00035 116 205.5 116 C 205.5 116 212.81822 117.3623 219.6875 116 C 222.47213 115.4477 229.84375 112.75 229.84375 112.75 C 229.84375 112.75 232.21639 117.0757 233.59375 118.9375 C 236.09863 122.32386 241.90625 127.78125 241.90625 127.78125 C 241.90625 127.78125 240.21185 130.71075 238.4375 131.71875 C 237.05258 132.50535 234.32649 132.5714 233.34375 134 C 232.68517 134.95746 232.46582 136.0625 232.53125 137.21875 C 231.83938 138.2661 230.65721 139.51602 230.46875 144.03125 C 232.07993 141.66957 232.99043 141.11323 234.96875 141.03125 C 235.45439 141.26578 235.92398 141.40675 236.1875 141.34375 L 239.65625 140.5 C 239.65625 140.5 240.06839 142.81904 240.71875 144.28125 C 240.40577 145.59875 239.87814 147.43407 241.0625 151.375 C 241.6526 148.84603 242.17016 147.70868 243.34375 146.71875 C 243.56403 146.78496 243.79514 146.83307 244.03125 146.84375 C 245.50155 146.91275 246.02969 146.5943 247.15625 145.4375 C 247.82903 144.7469 248.84375 142.5 248.84375 142.5 C 248.84375 142.5 249.84348 143.59303 250.75 144.03125 C 250.7306 145.36439 250.8893 147.209 252.5 150.0625 C 252.59172 146.80396 253.03897 145.60437 254.59375 143.78125 C 255.14979 143.46707 255.61816 143.02238 255.96875 142.375 C 256.74197 140.9476 256.86845 140.34745 256.4375 138.71875 C 256.09577 137.42695 254.17555 135.6064 254.03125 133.9375 L 253.4375 127.15625 C 253.4375 127.15625 254.71491 127.09635 255.28125 127.40625 C 256.18695 127.90215 257.65625 129.25 257.65625 129.25 C 257.65625 129.25 257.44087 125.94745 256.5625 124.46875 C 255.46312 122.61775 252.96875 121.03125 252.96875 121.03125 C 252.96875 121.03125 254.02329 120.18175 254.625 119.96875 C 255.5499 119.64475 257.5 119.6875 257.5 119.6875 C 257.5 119.6875 256.24927 117.6033 255.15625 116.4375 C 253.92184 115.1208 250.3125 115.46875 250.3125 115.46875 C 250.3125 115.46875 251.41506 114.0235 252.09375 113.5 C 252.98152 112.8145 254.84375 113 254.84375 113 C 254.84375 113 253.57168 110.8753 252.1875 110.125 C 250.89516 109.4254 247.8125 109.34375 247.8125 109.34375 C 247.8125 109.34375 248.66933 107.76005 249.3125 107.28125 C 250.2521 106.58193 252.5 105.71875 252.5 105.71875 C 252.5 105.71875 250.37809 104.10075 249.0625 103.59375 C 248.26504 103.28565 246.61822 103.6121 245.21875 103.25 C 243.89686 102.9083 243.03125 101.4375 243.03125 101.4375 C 243.55538 98.0928 242.7187 96.30225 241.46875 95.71875 C 240.83704 95.42475 239.59946 95.43675 238.8125 95.71875 C 237.71501 96.11205 237.02478 97.02945 235.96875 98.34375 C 235.96875 98.34375 229.09031 97.74325 225.03125 98.03125 C 222.12822 98.23645 217.90215 100.5441 215.15625 99.375 C 213.15429 98.5224 212.37018 95.046 210.75 93.375 C 209.36688 91.9485 206.3125 88.8125 206.3125 88.8125 C 215.40853 89.0972 229.86692 91.4816 240.40625 87.3125 C 246.40085 84.9413 253.41774 81.10845 253.78125 72.65625 C 254.1351 64.42905 250.30644 56.88125 238.6875 56.65625 C 232.05372 56.52695 228.08458 56.88039 219.21875 59.3125 C 214.20239 60.6886 205.68188 63.52435 199.0625 65.03125 C 192.38476 66.55135 184.5856 69.08615 177.90625 70.34375 C 171.42562 71.56415 166.06652 71.57835 159.5 69.65625 C 157.29191 69.01005 154.79999 67.7314 153.6875 65.3125 C 153.19169 64.2343 153.12236 62.61975 153.6875 61.59375 C 155.31413 58.64084 158.92246 58.27625 161.78125 57.59375 C 163.10551 57.27725 166.22942 60.44725 168.03125 61.28125 C 171.01888 62.66455 172.77405 62.702 175.96875 62.75 C 177.88626 62.7782 180.74469 62.15885 182.625 60.78125 C 185.17053 58.91615 187.85279 57.31265 190.25 58.53125 C 191.36156 59.09616 190.8125 63.125 190.8125 63.125 C 194.51276 61.1147 196.03621 58.1396 193.09375 53.9375 C 193.09375 53.9375 198.44587 55.9323 201.34375 56.25 C 205.94557 56.7546 210.83619 56.2109 215.0625 53.9375 C 220.35909 51.0884 222.84318 46.89165 223.3125 40.40625 C 223.3125 40.40625 221.10243 43.2844 220.3125 44.3125 C 218.61798 46.5187 213.55216 47.85905 211.09375 48.21875 C 211.09375 48.21875 211.87901 44.9217 211.25 43.5 C 209.70986 40.0197 207.375 39.96875 207.375 39.96875 z "
       transform="translate(0,733.46324)"
       id="path13429-5-2-95-17-2-2-5-4-2-8-4" />
    <path
       d="m 132.67012,821.4237 c 2.26188,1.7004 4.74597,-0.5274 5.25753,-0.7548 0,0 -1.08285,-0.9129 -1.81575,-3.1071 -0.49266,-1.47512 -0.66321,-4.08152 -0.70866,-5.30342 -0.1689,-4.5381 1.32945,-5.2422 1.37826,-4.8987 0,0 2.48868,-1.0305 3.52083,-1.9911 0.97835,-0.9093 1.43024,-2.4882 1.70009,-3.9426 0.4047,-2.1813 -0.30687,-5.3865 -0.30687,-5.3865 -3.6161,-0.252 -4.53548,0.3258 -5.38262,1.6632 0,0 -0.075,-2.229 -0.57732,-4.2648 -0.2505,-1.0149 -0.8289,-2.52571 -1.42176,-3.50371 -0.60936,-1.0053 -1.23,-1.4643 -1.23,-1.4643 -0.021,1.1577 -0.88362,2.2155 -1.32405,3.0231 0,0 -0.36693,-4.4337 -1.28718,-6.024 -0.7098,-1.2264 -2.66904,-2.8599 -2.65464,-2.8548 0.015,0.003 -2.22645,0.156 -3.37137,0.7263 -1.48437,0.741 -3.77037,4.2375 -3.77037,4.2375 -0.012,-0.9672 -0.2649,-2.4189 0.2325,-3.4089 0,0 -0.72747,0 -1.68909,0.4332 -0.93558,0.438 -2.0966,1.3344 -2.75999,2.0265 -1.3311,1.3881 -2.38809,3.2175 -2.38809,3.2175 -0.0597,-1.7523 -0.55356,-2.7612 -3.79343,-4.9047 0,0 -2.02851,2.2374 -2.66016,4.3386 -0.42126,1.4007 -0.74328,3.02551 -0.3255,4.42771 0.44118,1.4811 2.07837,3.9693 2.07837,3.9693 0.1941,-0.258 1.14276,1.3107 -1.02306,5.0244 -0.58305,0.9996 -1.88886,3.0846 -2.96166,4.0065 -1.59573,1.3716 -2.91516,1.4361 -2.91516,1.4361 0.80562,2.532 1.02531,3.5682 4.09308,4.0578 -6.991503,6.06242 -7.785093,15.73382 -2.41716,23.97272 0.34986,-0.9894 1.54839,-3.2358 2.25648,-4.0983 -0.0753,-0.072 0.0903,4.761 2.08584,7.2216 0.64755,0.7986 0.96258,5.24162 1.89819,6.63902 0.8535,1.275 2.05254,2.6613 2.05254,2.6613 0,0 0.93041,-3.5235 2.29487,-4.0728 1.37406,-0.5532 3.94052,-1.4397 4.787,-1.7625 1.70385,-0.6492 4.7385,-5.03582 4.7385,-5.03582 l -0.53313,5.36432 c 9.19836,-3.93992 11.29812,-11.48582 8.94309,-21.66722 z"
       id="path14997-8-0-1-79-2-8-3-7-00-1-1-0-0-7-3-1-6-8"
       style="fill:#002255;stroke:#003380;stroke-miterlimit:4;display:inline" />
  </g>
</svg>
